<?xml version="1.0" encoding="utf-8"?>
<!-- Generator: Adobe Illustrator 25.0.0, SVG Export Plug-In . SVG Version: 6.00 Build 0)  -->
<svg version="1.1" id="Capa_1" xmlns="http://www.w3.org/2000/svg" xmlns:xlink="http://www.w3.org/1999/xlink" x="0px" y="0px"
	 viewBox="0 0 300 54.4" style="enable-background:new 0 0 300 54.4;" xml:space="preserve">
<style type="text/css">
	.st0{fill:#FFFFFF;}
	.st1{clip-path:url(#SVGID_2_);}
	.st2{fill:#004AAD;}
	.st3{fill:#6165FA;}
	.st4{clip-path:url(#SVGID_4_);}
</style>
<g>
	<g>
		<path class="st0" d="M0,0h289.2c6,0,10.8,5.7,10.8,11.7v42.7H10.8C4.8,54.4,0,48.7,0,42.7L0,0L0,0z"/>
		<g>
			<g>
				<g>
					<defs>
						<rect id="SVGID_1_" x="8.9" y="6.8" width="32.6" height="30"/>
					</defs>
					<clipPath id="SVGID_2_">
						<use xlink:href="#SVGID_1_"  style="overflow:visible;"/>
					</clipPath>
					<g class="st1">
						<path class="st2" d="M20.2,30.6H34c0.1,0,0.3,0,0.4,0s0.3,0,0.4,0.1c0.1,0,0.3,0.1,0.4,0.1c0.1,0.1,0.3,0.1,0.4,0.2
							c0.1,0.1,0.2,0.1,0.4,0.2c0.1,0.1,0.2,0.2,0.3,0.3c0.1,0.1,0.2,0.2,0.3,0.3c0.1,0.1,0.2,0.2,0.3,0.4c-0.1,0.1-0.1,0.1-0.2,0.2
							c-0.1,0.1-0.1,0.2-0.2,0.2c0,0.1-0.1,0.2-0.1,0.2c0,0.1-0.1,0.2-0.1,0.3c0,0.1-0.1,0.2-0.1,0.3c0,0.1,0,0.2,0,0.3s0,0.2,0,0.3
							c0,0.1,0,0.2,0,0.3c0,0.1,0,0.2,0,0.3c0,0.1,0,0.2,0.1,0.3c0,0.1,0.1,0.2,0.1,0.3c0,0.1,0.1,0.2,0.1,0.3
							c0,0.1,0.1,0.2,0.2,0.2c0.1,0.1,0.1,0.2,0.2,0.2c0.1,0.1,0.1,0.1,0.2,0.2c0.1,0.1,0.1,0.1,0.2,0.2c0.1,0.1,0.2,0.1,0.2,0.2
							c0.1,0,0.2,0.1,0.3,0.1c0.1,0,0.2,0.1,0.3,0.1c0.1,0,0.2,0,0.3,0.1c0.1,0,0.2,0,0.3,0c0.1,0,0.2,0,0.3,0s0.2,0,0.3,0
							s0.2,0,0.3-0.1c0.1,0,0.2,0,0.3-0.1c0.1,0,0.2-0.1,0.3-0.1c0.1,0,0.2-0.1,0.2-0.1c0.1,0,0.2-0.1,0.2-0.2
							c0.1-0.1,0.1-0.1,0.2-0.2c0.1-0.1,0.1-0.1,0.2-0.2c0.1-0.1,0.1-0.2,0.2-0.2c0-0.1,0.1-0.2,0.1-0.2s0.1-0.2,0.1-0.3
							c0-0.1,0.1-0.2,0.1-0.3s0-0.2,0.1-0.3c0-0.1,0-0.2,0-0.3c0-0.1,0-0.2,0-0.3c0-0.1,0-0.2,0-0.3c0-0.1,0-0.2-0.1-0.3
							c0-0.1-0.1-0.2-0.1-0.3c0-0.1-0.1-0.2-0.1-0.3s-0.1-0.2-0.2-0.2c-0.1-0.1-0.1-0.2-0.2-0.2c-0.1-0.1-0.1-0.1-0.2-0.2
							c-0.1-0.1-0.1-0.1-0.2-0.2c-0.1-0.1-0.2-0.1-0.2-0.2c-0.1,0-0.2-0.1-0.3-0.1c-0.1,0-0.2-0.1-0.3-0.1c-0.1-0.3-0.3-0.5-0.4-0.8
							c-0.2-0.2-0.3-0.5-0.5-0.7c-0.2-0.2-0.4-0.4-0.6-0.6c-0.2-0.2-0.5-0.4-0.7-0.5s-0.5-0.3-0.8-0.4c-0.3-0.1-0.5-0.2-0.8-0.3
							s-0.6-0.1-0.9-0.2C34.5,28,34.3,28,34,28H20.2c-0.1,0-0.3,0-0.4,0s-0.3,0-0.4,0c-0.1,0-0.3,0-0.4,0c-0.1,0-0.3,0-0.4-0.1
							c-0.1,0-0.3-0.1-0.4-0.1c-0.1,0-0.3-0.1-0.4-0.1c-0.1,0-0.3-0.1-0.4-0.1c-0.1,0-0.3-0.1-0.4-0.2c-0.1-0.1-0.3-0.1-0.4-0.2
							c-0.1-0.1-0.3-0.1-0.4-0.2c-0.1-0.1-0.2-0.1-0.4-0.2c-0.1-0.1-0.2-0.2-0.4-0.2c-0.1-0.1-0.2-0.2-0.3-0.2
							c-0.1-0.1-0.2-0.2-0.3-0.3c-0.1-0.1-0.2-0.2-0.3-0.3c-0.1-0.1-0.2-0.2-0.3-0.3c-0.1-0.1-0.2-0.2-0.3-0.3
							c-0.1-0.1-0.2-0.2-0.3-0.3c-0.1-0.1-0.2-0.2-0.3-0.3c-0.1-0.1-0.2-0.2-0.2-0.3c-0.1-0.1-0.2-0.2-0.2-0.4
							c-0.1-0.1-0.1-0.2-0.2-0.4c-0.1-0.1-0.1-0.2-0.2-0.4s-0.1-0.3-0.2-0.4s-0.1-0.3-0.2-0.4c0-0.1-0.1-0.3-0.1-0.4
							c0-0.1-0.1-0.3-0.1-0.4c0-0.1-0.1-0.3-0.1-0.4s0-0.3-0.1-0.4c0-0.1,0-0.3,0-0.4s0-0.3,0-0.4c0-0.1,0-0.3,0-0.4s0-0.3,0-0.4
							c0-0.1,0-0.3,0-0.4c0-0.1,0-0.3,0-0.4c0-0.1,0-0.3,0.1-0.4c0-0.1,0.1-0.3,0.1-0.4c0-0.1,0.1-0.3,0.1-0.4
							c0-0.1,0.1-0.3,0.1-0.4c0-0.1,0.1-0.3,0.2-0.4c0.1-0.1,0.1-0.3,0.2-0.4c0.1-0.1,0.1-0.3,0.2-0.4c0.1-0.1,0.1-0.2,0.2-0.4
							c0.1-0.1,0.2-0.2,0.2-0.4c0.1-0.1,0.2-0.2,0.2-0.3c0.1-0.1,0.2-0.2,0.3-0.3c0.1-0.1,0.2-0.2,0.3-0.3c0.1-0.1,0.2-0.2,0.3-0.3
							c0.1-0.1,0.2-0.2,0.3-0.3c0.1-0.1,0.2-0.2,0.3-0.3c0.1-0.1,0.2-0.2,0.3-0.3c0.1-0.1,0.2-0.2,0.3-0.2c0.1-0.1,0.2-0.2,0.4-0.2
							s0.2-0.1,0.4-0.2c0.1-0.1,0.2-0.1,0.4-0.2s0.3-0.1,0.4-0.2s0.3-0.1,0.4-0.2c0.1,0,0.3-0.1,0.4-0.1c0.1,0,0.3-0.1,0.4-0.1
							c0.1,0,0.3-0.1,0.4-0.1c0.1,0,0.3,0,0.4-0.1c0.1,0,0.3,0,0.4,0s0.3,0,0.4,0s0.3,0,0.4,0h10.9c0,0.1,0.1,0.2,0.2,0.2
							c0.1,0.1,0.1,0.2,0.2,0.2c0.1,0.1,0.1,0.1,0.2,0.2c0.1,0.1,0.2,0.1,0.2,0.2c0.1,0.1,0.2,0.1,0.2,0.2c0.1,0,0.2,0.1,0.3,0.1
							c0.1,0,0.2,0.1,0.3,0.1c0.1,0,0.2,0,0.3,0.1c0.1,0,0.2,0,0.3,0c0.1,0,0.2,0,0.3,0c0.1,0,0.2,0,0.3,0c0.1,0,0.2,0,0.3-0.1
							c0.1,0,0.2-0.1,0.3-0.1c0.1,0,0.2-0.1,0.3-0.1c0.1,0,0.2-0.1,0.2-0.2c0.1-0.1,0.2-0.1,0.2-0.2c0.1-0.1,0.1-0.1,0.2-0.2
							c0.1-0.1,0.1-0.1,0.2-0.2c0.1-0.1,0.1-0.2,0.2-0.2c0-0.1,0.1-0.2,0.1-0.3c0-0.1,0.1-0.2,0.1-0.3c0-0.1,0.1-0.2,0.1-0.3
							c0-0.1,0-0.2,0-0.3c0-0.1,0-0.2,0-0.3c0-0.1,0-0.2,0-0.3c0-0.1,0-0.2,0-0.3c0-0.1,0-0.2-0.1-0.3c0-0.1-0.1-0.2-0.1-0.3
							c0-0.1-0.1-0.2-0.1-0.3c0-0.1-0.1-0.2-0.2-0.2c-0.1-0.1-0.1-0.2-0.2-0.2c-0.1-0.1-0.1-0.1-0.2-0.2c-0.1-0.1-0.2-0.1-0.2-0.2
							c-0.1-0.1-0.2-0.1-0.2-0.2c-0.1,0-0.2-0.1-0.3-0.1c-0.1,0-0.2-0.1-0.3-0.1c-0.1,0-0.2,0-0.3-0.1c-0.1,0-0.2,0-0.3,0
							c-0.1,0-0.2,0-0.3,0c-0.1,0-0.2,0-0.3,0c-0.1,0-0.2,0-0.3,0.1C32.5,7,32.4,7,32.4,7c-0.1,0-0.2,0.1-0.3,0.1
							c-0.1,0-0.2,0.1-0.2,0.2c-0.1,0.1-0.2,0.1-0.2,0.2s-0.1,0.1-0.2,0.2c-0.1,0.1-0.1,0.1-0.2,0.2c-0.1,0.1-0.1,0.2-0.2,0.2H20.2
							c-0.2,0-0.4,0-0.6,0c-0.2,0-0.4,0-0.6,0c-0.2,0-0.4,0-0.6,0.1c-0.2,0-0.4,0.1-0.6,0.1c-0.2,0-0.4,0.1-0.5,0.1
							c-0.2,0-0.4,0.1-0.5,0.2c-0.2,0.1-0.4,0.1-0.5,0.2C16.2,8.9,16.1,9,15.9,9c-0.2,0.1-0.3,0.1-0.5,0.2c-0.2,0.1-0.3,0.2-0.5,0.2
							c-0.2,0.1-0.3,0.2-0.5,0.3c-0.2,0.1-0.3,0.2-0.5,0.3c-0.2,0.1-0.3,0.2-0.5,0.3c-0.2,0.1-0.3,0.2-0.4,0.3
							c-0.1,0.1-0.3,0.2-0.4,0.4c-0.1,0.1-0.3,0.2-0.4,0.4c-0.1,0.1-0.3,0.3-0.4,0.4c-0.1,0.1-0.2,0.3-0.4,0.4
							c-0.1,0.1-0.2,0.3-0.3,0.4c-0.1,0.2-0.2,0.3-0.3,0.5c-0.1,0.2-0.2,0.3-0.3,0.5c-0.1,0.2-0.2,0.3-0.3,0.5
							c-0.1,0.2-0.2,0.3-0.2,0.5C10,14.8,9.9,15,9.8,15.1c-0.1,0.2-0.1,0.3-0.2,0.5S9.5,16,9.4,16.2c-0.1,0.2-0.1,0.4-0.2,0.5
							c0,0.2-0.1,0.4-0.1,0.5c0,0.2-0.1,0.4-0.1,0.5c0,0.2,0,0.4-0.1,0.6c0,0.2,0,0.4,0,0.6c0,0.2,0,0.4,0,0.6c0,0.2,0,0.4,0,0.6
							c0,0.2,0,0.4,0,0.6c0,0.2,0,0.4,0.1,0.6c0,0.2,0.1,0.4,0.1,0.6c0,0.2,0.1,0.4,0.1,0.5c0,0.2,0.1,0.4,0.2,0.5
							c0.1,0.2,0.1,0.4,0.2,0.5c0.1,0.2,0.1,0.4,0.2,0.5c0.1,0.2,0.1,0.3,0.2,0.5s0.2,0.3,0.2,0.5c0.1,0.2,0.2,0.3,0.3,0.5
							c0.1,0.2,0.2,0.3,0.3,0.5c0.1,0.2,0.2,0.3,0.3,0.5c0.1,0.2,0.2,0.3,0.3,0.4s0.2,0.3,0.4,0.4s0.2,0.3,0.4,0.4
							c0.1,0.1,0.3,0.3,0.4,0.4c0.1,0.1,0.3,0.2,0.4,0.4c0.1,0.1,0.3,0.2,0.4,0.3c0.1,0.1,0.3,0.2,0.5,0.3c0.2,0.1,0.3,0.2,0.5,0.3
							c0.2,0.1,0.3,0.2,0.5,0.3c0.2,0.1,0.3,0.2,0.5,0.2c0.2,0.1,0.3,0.2,0.5,0.2c0.2,0.1,0.3,0.1,0.5,0.2c0.2,0.1,0.4,0.1,0.5,0.2
							c0.2,0.1,0.4,0.1,0.5,0.2c0.2,0,0.4,0.1,0.5,0.1c0.2,0,0.4,0.1,0.6,0.1c0.2,0,0.4,0,0.6,0.1c0.2,0,0.4,0,0.6,0
							C19.8,30.7,20,30.7,20.2,30.6L20.2,30.6z"/>
					</g>
				</g>
			</g>
		</g>
		<path class="st3" d="M22.5,13.3c0-0.1-0.1-0.2-0.2-0.2c-0.1-0.1-0.1-0.2-0.2-0.2c-0.1-0.1-0.1-0.1-0.2-0.2
			c-0.1-0.1-0.2-0.1-0.2-0.2c-0.1-0.1-0.2-0.1-0.2-0.2c-0.1,0-0.2-0.1-0.3-0.1c-0.1,0-0.2-0.1-0.3-0.1c-0.1,0-0.2,0-0.3-0.1
			c-0.1,0-0.2,0-0.3,0c-0.1,0-0.2,0-0.3,0c-0.1,0-0.2,0-0.3,0c-0.1,0-0.2,0-0.3,0.1c-0.1,0-0.2,0.1-0.3,0.1c-0.1,0-0.2,0.1-0.3,0.1
			c-0.1,0-0.2,0.1-0.2,0.1c-0.1,0.1-0.2,0.1-0.2,0.2c-0.1,0.1-0.1,0.1-0.2,0.2c-0.1,0.1-0.1,0.1-0.2,0.2C18.1,13,18,13.1,18,13.2
			c0,0.1-0.1,0.2-0.1,0.3c0,0.1-0.1,0.2-0.1,0.3c0,0.1-0.1,0.2-0.1,0.3c0,0.1,0,0.2,0,0.3c0,0.1,0,0.2,0,0.3c0,0.1,0,0.2,0,0.3
			c0,0.1,0,0.2,0,0.3c0,0.1,0,0.2,0.1,0.3c0,0.1,0.1,0.2,0.1,0.3c0,0.1,0.1,0.2,0.1,0.3c0,0.1,0.1,0.2,0.2,0.2
			c0.1,0.1,0.1,0.2,0.2,0.2c0.1,0.1,0.1,0.1,0.2,0.2c0.1,0.1,0.2,0.1,0.2,0.2c0.1,0.1,0.2,0.1,0.2,0.2c0.1,0,0.2,0.1,0.3,0.1
			c0.1,0,0.2,0.1,0.3,0.1c0.1,0,0.2,0,0.3,0.1c0.1,0,0.2,0,0.3,0c0.1,0,0.2,0,0.3,0c0.1,0,0.2,0,0.3,0c0.1,0,0.2,0,0.3-0.1
			c0.1,0,0.2-0.1,0.3-0.1c0.1,0,0.2-0.1,0.3-0.1c0.1,0,0.2-0.1,0.2-0.2c0.1-0.1,0.2-0.1,0.2-0.2c0.1-0.1,0.1-0.1,0.2-0.2
			c0.1-0.1,0.1-0.1,0.2-0.2c0.1-0.1,0.1-0.2,0.2-0.2h16.8c0,0.1,0.1,0.2,0.2,0.2c0.1,0.1,0.1,0.2,0.2,0.2c0.1,0.1,0.1,0.1,0.2,0.2
			c0.1,0.1,0.2,0.1,0.2,0.2c0.1,0.1,0.2,0.1,0.2,0.2c0.1,0,0.2,0.1,0.3,0.1c0.1,0,0.2,0.1,0.3,0.1c0.1,0,0.2,0,0.3,0.1
			c0.1,0,0.2,0,0.3,0c0.1,0,0.2,0,0.3,0c0.1,0,0.2,0,0.3,0c0.1,0,0.2,0,0.3-0.1c0.1,0,0.2-0.1,0.3-0.1c0.1,0,0.2-0.1,0.3-0.1
			c0.1,0,0.2-0.1,0.2-0.2c0.1-0.1,0.2-0.1,0.2-0.2c0.1-0.1,0.1-0.1,0.2-0.2c0.1-0.1,0.1-0.1,0.2-0.2c0.1-0.1,0.1-0.2,0.2-0.2
			c0-0.1,0.1-0.2,0.1-0.3c0-0.1,0.1-0.2,0.1-0.3c0-0.1,0.1-0.2,0.1-0.3s0-0.2,0-0.3c0-0.1,0-0.2,0-0.3c0-0.1,0-0.2,0-0.3
			c0-0.1,0-0.2,0-0.3c0-0.1,0-0.2-0.1-0.3c0-0.1-0.1-0.2-0.1-0.3c0-0.1-0.1-0.2-0.1-0.3c0-0.1-0.1-0.2-0.2-0.2
			c-0.1-0.1-0.1-0.2-0.2-0.2s-0.1-0.1-0.2-0.2c-0.1-0.1-0.2-0.1-0.2-0.2c-0.1-0.1-0.2-0.1-0.2-0.1c-0.1,0-0.2-0.1-0.3-0.1
			c-0.1,0-0.2-0.1-0.3-0.1c-0.1,0-0.2,0-0.3-0.1s-0.2,0-0.3,0c-0.1,0-0.2,0-0.3,0c-0.1,0-0.2,0-0.3,0c-0.1,0-0.2,0-0.3,0.1
			c-0.1,0-0.2,0.1-0.3,0.1c-0.1,0-0.2,0.1-0.3,0.1c-0.1,0-0.2,0.1-0.2,0.2c-0.1,0.1-0.2,0.1-0.2,0.2c-0.1,0.1-0.1,0.1-0.2,0.2
			c-0.1,0.1-0.1,0.1-0.2,0.2c-0.1,0.1-0.1,0.2-0.2,0.2H22.5z"/>
		<g>
			<g>
				<g>
					<defs>
						<rect id="SVGID_3_" x="12.7" y="16.7" width="32.6" height="30"/>
					</defs>
					<clipPath id="SVGID_4_">
						<use xlink:href="#SVGID_3_"  style="overflow:visible;"/>
					</clipPath>
					<g class="st4">
						<path class="st3" d="M34,22.8H20.2c-0.1,0-0.3,0-0.4,0c-0.1,0-0.3,0-0.4-0.1s-0.3-0.1-0.4-0.1c-0.1-0.1-0.3-0.1-0.4-0.2
							c-0.1-0.1-0.2-0.1-0.4-0.2c-0.1-0.1-0.2-0.2-0.3-0.3c-0.1-0.1-0.2-0.2-0.3-0.3c-0.1-0.1-0.2-0.2-0.3-0.4
							c0.1-0.1,0.1-0.1,0.2-0.2c0.1-0.1,0.1-0.2,0.2-0.2c0-0.1,0.1-0.2,0.1-0.2c0-0.1,0.1-0.2,0.1-0.3S18,20.1,18,20s0-0.2,0-0.3
							c0-0.1,0-0.2,0-0.3c0-0.1,0-0.2,0-0.3s0-0.2,0-0.3c0-0.1,0-0.2-0.1-0.3c0-0.1-0.1-0.2-0.1-0.3c0-0.1-0.1-0.2-0.1-0.3
							c0-0.1-0.1-0.2-0.2-0.2c-0.1-0.1-0.1-0.2-0.2-0.2c-0.1-0.1-0.1-0.1-0.2-0.2c-0.1-0.1-0.1-0.1-0.2-0.2
							c-0.1-0.1-0.2-0.1-0.2-0.2c-0.1,0-0.2-0.1-0.3-0.1c-0.1,0-0.2-0.1-0.3-0.1s-0.2,0-0.3-0.1c-0.1,0-0.2,0-0.3,0
							c-0.1,0-0.2,0-0.3,0c-0.1,0-0.2,0-0.3,0c-0.1,0-0.2,0-0.3,0.1c-0.1,0-0.2,0-0.3,0.1c-0.1,0-0.2,0.1-0.3,0.1
							c-0.1,0-0.2,0.1-0.2,0.1c-0.1,0-0.2,0.1-0.2,0.2c-0.1,0.1-0.1,0.1-0.2,0.2c-0.1,0.1-0.1,0.1-0.2,0.2c-0.1,0.1-0.1,0.2-0.2,0.2
							c0,0.1-0.1,0.2-0.1,0.2c0,0.1-0.1,0.2-0.1,0.3c0,0.1-0.1,0.2-0.1,0.3c0,0.1,0,0.2-0.1,0.3c0,0.1,0,0.2,0,0.3s0,0.2,0,0.3
							c0,0.1,0,0.2,0,0.3c0,0.1,0,0.2,0.1,0.3c0,0.1,0.1,0.2,0.1,0.3c0,0.1,0.1,0.2,0.1,0.3s0.1,0.2,0.2,0.2
							c0.1,0.1,0.1,0.2,0.2,0.2s0.1,0.1,0.2,0.2c0.1,0.1,0.1,0.1,0.2,0.2s0.2,0.1,0.2,0.2c0.1,0,0.2,0.1,0.3,0.1
							c0.1,0,0.2,0.1,0.3,0.1c0.1,0.3,0.3,0.5,0.4,0.8c0.2,0.2,0.3,0.5,0.5,0.7c0.2,0.2,0.4,0.4,0.6,0.6c0.2,0.2,0.5,0.4,0.7,0.5
							c0.2,0.2,0.5,0.3,0.8,0.4c0.3,0.1,0.5,0.2,0.8,0.3c0.3,0.1,0.6,0.1,0.9,0.2c0.3,0,0.6,0.1,0.9,0.1h13.8c0.1,0,0.3,0,0.4,0
							c0.1,0,0.3,0,0.4,0c0.1,0,0.3,0,0.4,0c0.1,0,0.3,0,0.4,0.1c0.1,0,0.3,0.1,0.4,0.1c0.1,0,0.3,0.1,0.4,0.1
							c0.1,0,0.3,0.1,0.4,0.1c0.1,0,0.3,0.1,0.4,0.2c0.1,0.1,0.3,0.1,0.4,0.2c0.1,0.1,0.3,0.1,0.4,0.2c0.1,0.1,0.2,0.1,0.4,0.2
							c0.1,0.1,0.2,0.2,0.4,0.2c0.1,0.1,0.2,0.2,0.3,0.2c0.1,0.1,0.2,0.2,0.3,0.3c0.1,0.1,0.2,0.2,0.3,0.3c0.1,0.1,0.2,0.2,0.3,0.3
							c0.1,0.1,0.2,0.2,0.3,0.3c0.1,0.1,0.2,0.2,0.3,0.3c0.1,0.1,0.2,0.2,0.3,0.3c0.1,0.1,0.2,0.2,0.2,0.3c0.1,0.1,0.2,0.2,0.2,0.4
							c0.1,0.1,0.1,0.2,0.2,0.4c0.1,0.1,0.1,0.2,0.2,0.4c0.1,0.1,0.1,0.3,0.2,0.4s0.1,0.3,0.2,0.4c0,0.1,0.1,0.3,0.1,0.4
							c0,0.1,0.1,0.3,0.1,0.4c0,0.1,0.1,0.3,0.1,0.4c0,0.1,0,0.3,0.1,0.4c0,0.1,0,0.3,0,0.4c0,0.1,0,0.3,0,0.4c0,0.1,0,0.3,0,0.4
							c0,0.1,0,0.3,0,0.4c0,0.1,0,0.3,0,0.4c0,0.1,0,0.3,0,0.4c0,0.1,0,0.3-0.1,0.4c0,0.1-0.1,0.3-0.1,0.4c0,0.1-0.1,0.3-0.1,0.4
							c0,0.1-0.1,0.3-0.1,0.4c0,0.1-0.1,0.3-0.2,0.4c-0.1,0.1-0.1,0.3-0.2,0.4c-0.1,0.1-0.1,0.3-0.2,0.4c-0.1,0.1-0.1,0.2-0.2,0.4
							c-0.1,0.1-0.2,0.2-0.2,0.4C41.1,39,41,39.1,41,39.2c-0.1,0.1-0.2,0.2-0.3,0.3c-0.1,0.1-0.2,0.2-0.3,0.3
							c-0.1,0.1-0.2,0.2-0.3,0.3c-0.1,0.1-0.2,0.2-0.3,0.3c-0.1,0.1-0.2,0.2-0.3,0.3c-0.1,0.1-0.2,0.2-0.3,0.3
							c-0.1,0.1-0.2,0.2-0.3,0.2c-0.1,0.1-0.2,0.2-0.4,0.2c-0.1,0.1-0.2,0.1-0.4,0.2c-0.1,0.1-0.2,0.1-0.4,0.2
							c-0.1,0.1-0.3,0.1-0.4,0.2c-0.1,0.1-0.3,0.1-0.4,0.2c-0.1,0-0.3,0.1-0.4,0.1c-0.1,0-0.3,0.1-0.4,0.1c-0.1,0-0.3,0.1-0.4,0.1
							c-0.1,0-0.3,0-0.4,0.1c-0.1,0-0.3,0-0.4,0c-0.1,0-0.3,0-0.4,0c-0.1,0-0.3,0-0.4,0H23.1c0-0.1-0.1-0.2-0.2-0.2
							c-0.1-0.1-0.1-0.2-0.2-0.2c-0.1-0.1-0.1-0.1-0.2-0.2c-0.1-0.1-0.2-0.1-0.2-0.2c-0.1-0.1-0.2-0.1-0.2-0.2
							c-0.1,0-0.2-0.1-0.3-0.1c-0.1,0-0.2-0.1-0.3-0.1c-0.1,0-0.2,0-0.3-0.1s-0.2,0-0.3,0c-0.1,0-0.2,0-0.3,0s-0.2,0-0.3,0
							c-0.1,0-0.2,0-0.3,0.1c-0.1,0-0.2,0.1-0.3,0.1c-0.1,0-0.2,0.1-0.3,0.1c-0.1,0-0.2,0.1-0.2,0.2c-0.1,0.1-0.2,0.1-0.2,0.2
							c-0.1,0.1-0.1,0.1-0.2,0.2c-0.1,0.1-0.1,0.1-0.2,0.2c-0.1,0.1-0.1,0.2-0.2,0.2s-0.1,0.2-0.1,0.3c0,0.1-0.1,0.2-0.1,0.3
							c0,0.1-0.1,0.2-0.1,0.3c0,0.1,0,0.2,0,0.3c0,0.1,0,0.2,0,0.3c0,0.1,0,0.2,0,0.3c0,0.1,0,0.2,0,0.3c0,0.1,0,0.2,0.1,0.3
							c0,0.1,0.1,0.2,0.1,0.3c0,0.1,0.1,0.2,0.1,0.3c0,0.1,0.1,0.2,0.2,0.2c0.1,0.1,0.1,0.2,0.2,0.2c0.1,0.1,0.1,0.1,0.2,0.2
							c0.1,0.1,0.2,0.1,0.2,0.2c0.1,0.1,0.2,0.1,0.2,0.2c0.1,0,0.2,0.1,0.3,0.1c0.1,0,0.2,0.1,0.3,0.1c0.1,0,0.2,0,0.3,0.1
							s0.2,0,0.3,0s0.2,0,0.3,0c0.1,0,0.2,0,0.3,0c0.1,0,0.2,0,0.3-0.1c0.1,0,0.2-0.1,0.3-0.1c0.1,0,0.2-0.1,0.3-0.1
							c0.1,0,0.2-0.1,0.2-0.2c0.1-0.1,0.2-0.1,0.2-0.2c0.1-0.1,0.1-0.1,0.2-0.2c0.1-0.1,0.1-0.1,0.2-0.2c0.1-0.1,0.1-0.2,0.2-0.2
							h10.9c0.2,0,0.4,0,0.6,0s0.4,0,0.6,0c0.2,0,0.4,0,0.6-0.1c0.2,0,0.4-0.1,0.6-0.1c0.2,0,0.4-0.1,0.5-0.1c0.2,0,0.4-0.1,0.5-0.2
							c0.2-0.1,0.4-0.1,0.5-0.2c0.2-0.1,0.4-0.1,0.5-0.2c0.2-0.1,0.3-0.1,0.5-0.2c0.2-0.1,0.3-0.2,0.5-0.2c0.2-0.1,0.3-0.2,0.5-0.3
							c0.2-0.1,0.3-0.2,0.5-0.3c0.2-0.1,0.3-0.2,0.5-0.3c0.2-0.1,0.3-0.2,0.4-0.3c0.1-0.1,0.3-0.2,0.4-0.4c0.1-0.1,0.3-0.2,0.4-0.4
							c0.1-0.1,0.3-0.3,0.4-0.4c0.1-0.1,0.2-0.3,0.4-0.4c0.1-0.1,0.2-0.3,0.3-0.4c0.1-0.2,0.2-0.3,0.3-0.5c0.1-0.2,0.2-0.3,0.3-0.5
							c0.1-0.2,0.2-0.3,0.3-0.5s0.2-0.3,0.2-0.5c0.1-0.2,0.2-0.3,0.2-0.5c0.1-0.2,0.1-0.3,0.2-0.5s0.1-0.4,0.2-0.5
							c0.1-0.2,0.1-0.4,0.2-0.5c0-0.2,0.1-0.4,0.1-0.5c0-0.2,0.1-0.4,0.1-0.5c0-0.2,0-0.4,0.1-0.6c0-0.2,0-0.4,0-0.6
							c0-0.2,0-0.4,0-0.6s0-0.4,0-0.6s0-0.4,0-0.6c0-0.2,0-0.4-0.1-0.6c0-0.2-0.1-0.4-0.1-0.6c0-0.2-0.1-0.4-0.1-0.5
							c0-0.2-0.1-0.4-0.2-0.5c-0.1-0.2-0.1-0.4-0.2-0.5c-0.1-0.2-0.1-0.3-0.2-0.5c-0.1-0.2-0.1-0.3-0.2-0.5
							c-0.1-0.2-0.2-0.3-0.2-0.5c-0.1-0.2-0.2-0.3-0.3-0.5c-0.1-0.2-0.2-0.3-0.3-0.5s-0.2-0.3-0.3-0.5c-0.1-0.2-0.2-0.3-0.3-0.4
							c-0.1-0.1-0.2-0.3-0.4-0.4c-0.1-0.1-0.2-0.3-0.4-0.4c-0.1-0.1-0.3-0.3-0.4-0.4c-0.1-0.1-0.3-0.2-0.4-0.4s-0.3-0.2-0.4-0.3
							c-0.2-0.1-0.3-0.2-0.5-0.3c-0.2-0.1-0.3-0.2-0.5-0.3c-0.2-0.1-0.3-0.2-0.5-0.3c-0.2-0.1-0.3-0.2-0.5-0.2
							c-0.2-0.1-0.3-0.2-0.5-0.2c-0.2-0.1-0.3-0.1-0.5-0.2c-0.2-0.1-0.4-0.1-0.5-0.2c-0.2-0.1-0.4-0.1-0.5-0.2
							c-0.2,0-0.4-0.1-0.5-0.1c-0.2,0-0.4-0.1-0.6-0.1c-0.2,0-0.4,0-0.6-0.1c-0.2,0-0.4,0-0.6,0C34.4,22.8,34.2,22.8,34,22.8
							L34,22.8z"/>
					</g>
				</g>
			</g>
		</g>
		<path class="st2" d="M31.7,40.2c0,0.1,0.1,0.2,0.2,0.2c0.1,0.1,0.1,0.2,0.2,0.2c0.1,0.1,0.1,0.1,0.2,0.2s0.2,0.1,0.2,0.2
			c0.1,0.1,0.2,0.1,0.2,0.2c0.1,0,0.2,0.1,0.3,0.1c0.1,0,0.2,0.1,0.3,0.1c0.1,0,0.2,0,0.3,0.1c0.1,0,0.2,0,0.3,0c0.1,0,0.2,0,0.3,0
			c0.1,0,0.2,0,0.3,0c0.1,0,0.2,0,0.3-0.1c0.1,0,0.2-0.1,0.3-0.1c0.1,0,0.2-0.1,0.3-0.1c0.1,0,0.2-0.1,0.2-0.2
			c0.1-0.1,0.2-0.1,0.2-0.2c0.1-0.1,0.1-0.1,0.2-0.2c0.1-0.1,0.1-0.1,0.2-0.2c0.1-0.1,0.1-0.2,0.2-0.2c0-0.1,0.1-0.2,0.1-0.3
			c0-0.1,0.1-0.2,0.1-0.3c0-0.1,0.1-0.2,0.1-0.3c0-0.1,0-0.2,0-0.3c0-0.1,0-0.2,0-0.3c0-0.1,0-0.2,0-0.3c0-0.1,0-0.2,0-0.3
			c0-0.1,0-0.2-0.1-0.3c0-0.1-0.1-0.2-0.1-0.3c0-0.1-0.1-0.2-0.1-0.3c0-0.1-0.1-0.2-0.2-0.2c-0.1-0.1-0.1-0.2-0.2-0.2
			c-0.1-0.1-0.1-0.1-0.2-0.2s-0.2-0.1-0.2-0.2c-0.1-0.1-0.2-0.1-0.2-0.2c-0.1,0-0.2-0.1-0.3-0.1c-0.1,0-0.2-0.1-0.3-0.1
			s-0.2,0-0.3-0.1s-0.2,0-0.3,0c-0.1,0-0.2,0-0.3,0c-0.1,0-0.2,0-0.3,0c-0.1,0-0.2,0-0.3,0.1c-0.1,0-0.2,0.1-0.3,0.1
			c-0.1,0-0.2,0.1-0.3,0.1c-0.1,0-0.2,0.1-0.2,0.2s-0.2,0.1-0.2,0.2c-0.1,0.1-0.1,0.1-0.2,0.2c-0.1,0.1-0.1,0.1-0.2,0.2
			c-0.1,0.1-0.1,0.2-0.2,0.2H14.9c0-0.1-0.1-0.2-0.2-0.2c-0.1-0.1-0.1-0.2-0.2-0.2c-0.1-0.1-0.1-0.1-0.2-0.2s-0.2-0.1-0.2-0.2
			c-0.1-0.1-0.2-0.1-0.2-0.2c-0.1,0-0.2-0.1-0.3-0.1c-0.1,0-0.2-0.1-0.3-0.1c-0.1,0-0.2,0-0.3-0.1c-0.1,0-0.2,0-0.3,0
			c-0.1,0-0.2,0-0.3,0c-0.1,0-0.2,0-0.3,0c-0.1,0-0.2,0-0.3,0.1c-0.1,0-0.2,0.1-0.3,0.1c-0.1,0-0.2,0.1-0.3,0.1
			c-0.1,0-0.2,0.1-0.2,0.2c-0.1,0.1-0.2,0.1-0.2,0.2c-0.1,0.1-0.1,0.1-0.2,0.2c-0.1,0.1-0.1,0.1-0.2,0.2s-0.1,0.2-0.2,0.2
			c0,0.1-0.1,0.2-0.1,0.3c0,0.1-0.1,0.2-0.1,0.3c0,0.1-0.1,0.2-0.1,0.3c0,0.1,0,0.2,0,0.3s0,0.2,0,0.3c0,0.1,0,0.2,0,0.3
			c0,0.1,0,0.2,0,0.3c0,0.1,0,0.2,0.1,0.3c0,0.1,0.1,0.2,0.1,0.3c0,0.1,0.1,0.2,0.1,0.3c0,0.1,0.1,0.2,0.2,0.2
			c0.1,0.1,0.1,0.2,0.2,0.2c0.1,0.1,0.1,0.1,0.2,0.2c0.1,0.1,0.2,0.1,0.2,0.2c0.1,0.1,0.2,0.1,0.2,0.2c0.1,0,0.2,0.1,0.3,0.1
			c0.1,0,0.2,0.1,0.3,0.1c0.1,0,0.2,0,0.3,0.1c0.1,0,0.2,0,0.3,0c0.1,0,0.2,0,0.3,0c0.1,0,0.2,0,0.3,0c0.1,0,0.2,0,0.3-0.1
			c0.1,0,0.2-0.1,0.3-0.1c0.1,0,0.2-0.1,0.3-0.1c0.1,0,0.2-0.1,0.2-0.2c0.1-0.1,0.2-0.1,0.2-0.2s0.1-0.1,0.2-0.2
			c0.1-0.1,0.1-0.1,0.2-0.2c0.1-0.1,0.1-0.2,0.2-0.2H31.7z"/>
	</g>
	<g>
		<path class="st2" d="M57.2,32.5h9.4c0.5,0,0.8,0,1,0s0.5,0.1,0.8,0.3c0.5,0.3,0.8,1.1,0.8,2.4c0,1.4-0.4,2.3-1.1,2.5
			c-0.3,0.1-0.9,0.2-1.6,0.2H54.5c-1.4,0-2.3-0.4-2.5-1.2c-0.1-0.3-0.2-0.8-0.2-1.6V18.3c0-1,0.2-1.7,0.6-2.1
			c0.4-0.4,1.1-0.6,2.2-0.6h12c0.5,0,0.8,0,1,0c0.2,0,0.5,0.1,0.8,0.3c0.5,0.3,0.8,1.1,0.8,2.4c0,1.4-0.4,2.3-1.1,2.5
			C67.8,21,67.3,21,66.5,21h-9.3v3.1h6c0.5,0,0.8,0,1,0s0.5,0.1,0.8,0.3c0.5,0.3,0.8,1.1,0.8,2.4c0,1.4-0.4,2.3-1.2,2.5
			c-0.3,0.1-0.9,0.2-1.6,0.2h-6L57.2,32.5L57.2,32.5z"/>
		<path class="st2" d="M82.8,24.5h5.3c1.1,0,1.8,0.3,2,0.8c0.2,0.4,0.3,1,0.3,1.7v6.7c0,0.6-0.3,1.3-0.8,1.9
			c-1.7,1.8-4.3,2.6-7.7,2.6c-3,0-5.6-1.1-7.9-3.4c-2.2-2.3-3.3-5-3.3-8.3c0-3.2,1.1-5.9,3.4-8.1c2.3-2.2,5-3.2,8-3.2
			c2.4,0,4.7,0.8,6.8,2.4c0.5,0.4,0.8,0.9,0.8,1.4s-0.2,1.1-0.7,1.7c-0.8,1.1-1.5,1.6-2.2,1.6c-0.4,0-1-0.3-1.9-0.8
			c-0.8-0.6-1.9-0.8-3-0.8c-1.5,0-2.9,0.5-4.1,1.6c-1.2,1.1-1.8,2.5-1.8,4.3c0,1.8,0.6,3.2,1.8,4.5c1.2,1.2,2.6,1.8,4.1,1.8
			c1.1,0,2.1-0.2,3-0.5v-3.3h-2.4c-0.6,0-1.1-0.1-1.3-0.2c-0.3-0.2-0.4-0.4-0.5-0.7s-0.1-0.7-0.1-1.3c0-0.5,0-1,0.1-1.3
			c0.1-0.3,0.2-0.5,0.5-0.7C81.7,24.6,82.2,24.5,82.8,24.5z"/>
		<path class="st2" d="M107.5,16.4c0.2-0.3,0.5-0.5,0.9-0.7c0.4-0.1,0.9-0.2,1.4-0.2c0.6,0,1,0,1.4,0.1c0.3,0.1,0.6,0.2,0.8,0.4
			s0.3,0.3,0.4,0.6c0.1,0.3,0.2,0.9,0.2,1.6v9.2c0,2.7-0.8,5.1-2.5,7.3c-0.8,1-1.9,1.9-3.1,2.5c-1.3,0.6-2.7,1-4.2,1s-3-0.3-4.2-1
			c-1.3-0.6-2.3-1.5-3.1-2.5c-1.6-2.2-2.5-4.6-2.5-7.3v-9.2c0-0.5,0-0.8,0-1.1c0-0.2,0.1-0.5,0.3-0.8c0.2-0.3,0.4-0.5,0.8-0.6
			c0.4-0.1,0.9-0.2,1.6-0.2c0.6,0,1.2,0,1.6,0.2c0.4,0.1,0.6,0.3,0.8,0.6c0.2,0.5,0.4,1.1,0.4,1.9v9.1c0,1.2,0.3,2.4,0.9,3.5
			c0.3,0.6,0.8,1,1.4,1.4c0.6,0.3,1.3,0.5,2.2,0.5c1.5,0,2.6-0.5,3.3-1.6s1.1-2.4,1.1-3.8v-9.3C107.2,17.3,107.3,16.8,107.5,16.4z"
			/>
		<path class="st2" d="M132.1,34.1c0.3,0.7,0.4,1.3,0.4,1.6c0,0.8-0.6,1.4-1.9,2c-0.6,0.3-1.2,0.4-1.6,0.4s-0.7-0.1-1-0.3
			c-0.2-0.2-0.4-0.4-0.6-0.6c-0.2-0.4-1-2.2-2.4-5.5l-0.9,0h-3.8v3.5c0,0.5,0,0.8,0,1c0,0.2-0.1,0.5-0.3,0.8
			c-0.3,0.5-1.1,0.8-2.4,0.8c-1.4,0-2.3-0.4-2.5-1.1c-0.1-0.3-0.2-0.9-0.2-1.6V18.3c0-0.5,0-0.8,0-1c0-0.2,0.1-0.5,0.3-0.8
			c0.3-0.5,1.1-0.8,2.4-0.8h6.6c1.8,0,3.5,0.6,5.2,2c0.8,0.6,1.5,1.5,2,2.5c0.5,1.1,0.8,2.3,0.8,3.6c0,2.3-0.8,4.2-2.3,5.7
			C130.5,30.5,131.2,32,132.1,34.1z M120.4,26.4h3.9c0.6,0,1.2-0.2,1.8-0.7c0.6-0.4,0.9-1.1,0.9-2s-0.3-1.6-0.9-2
			c-0.6-0.4-1.2-0.7-1.8-0.7h-3.8L120.4,26.4L120.4,26.4L120.4,26.4z"/>
		<path class="st2" d="M134.2,18.3c0-0.5,0-0.8,0-1c0-0.2,0.1-0.5,0.3-0.8c0.3-0.5,1.1-0.8,2.4-0.8c1.4,0,2.3,0.4,2.5,1.1
			c0.1,0.3,0.1,0.9,0.1,1.6v16.9c0,0.5,0,0.8,0,1.1s-0.1,0.5-0.3,0.8c-0.3,0.5-1.1,0.8-2.4,0.8c-1.4,0-2.3-0.4-2.5-1.2
			c-0.1-0.3-0.2-0.8-0.2-1.6V18.3z"/>
		<path class="st2" d="M144.7,15.6l5.6,0c2.9,0,5.5,1.1,7.7,3.2c2.2,2.1,3.3,4.7,3.3,7.8s-1.1,5.7-3.3,7.9c-2.2,2.2-4.8,3.3-7.9,3.3
			h-5.6c-1.2,0-2-0.2-2.3-0.8c-0.2-0.4-0.4-1.1-0.4-2V18.2c0-0.5,0-0.8,0-1.1c0-0.2,0.1-0.5,0.3-0.8
			C142.6,15.9,143.4,15.6,144.7,15.6z M154.3,30.9c1.2-1.1,1.8-2.5,1.8-4.1c0-1.6-0.6-3-1.7-4.1c-1.1-1.1-2.5-1.7-4-1.7h-2.9v11.5
			h2.9C151.8,32.5,153.1,32,154.3,30.9z"/>
		<path class="st2" d="M174.8,17.2l8.2,17c0.3,0.7,0.5,1.2,0.5,1.6c0,0.7-0.6,1.4-1.8,2c-0.7,0.3-1.2,0.5-1.6,0.5s-0.7-0.1-1-0.3
			c-0.2-0.2-0.4-0.4-0.5-0.6c-0.1-0.2-0.3-0.5-0.5-0.9l-1.6-3.3h-8.4l-1.6,3.3c-0.2,0.4-0.4,0.7-0.5,0.9c-0.1,0.2-0.3,0.4-0.5,0.6
			c-0.2,0.2-0.6,0.3-1,0.3c-0.4,0-0.9-0.2-1.6-0.5c-1.2-0.6-1.8-1.2-1.8-2c0-0.3,0.2-0.9,0.5-1.6l8.2-17c0.2-0.5,0.6-0.8,1-1.1
			c0.4-0.3,0.9-0.4,1.4-0.4C173.5,15.6,174.3,16.2,174.8,17.2z M172.3,24.5l-2,4.2h4L172.3,24.5z"/>
		<path class="st2" d="M187.9,15.6l5.6,0c2.9,0,5.5,1.1,7.7,3.2c2.2,2.1,3.3,4.7,3.3,7.8s-1.1,5.7-3.3,7.9c-2.2,2.2-4.8,3.3-7.9,3.3
			h-5.5c-1.2,0-2-0.2-2.3-0.8c-0.2-0.4-0.4-1.1-0.4-2V18.2c0-0.5,0-0.8,0-1.1c0-0.2,0.1-0.5,0.3-0.8
			C185.8,15.9,186.6,15.6,187.9,15.6z M197.5,30.9c1.2-1.1,1.8-2.5,1.8-4.1c0-1.6-0.6-3-1.7-4.1c-1.1-1.1-2.5-1.7-4-1.7h-2.9v11.5
			h2.9C195,32.5,196.3,32,197.5,30.9z"/>
		<path class="st2" d="M219.7,32.5h9.4c0.5,0,0.8,0,1,0c0.2,0,0.5,0.1,0.8,0.3c0.5,0.3,0.8,1.1,0.8,2.4c0,1.4-0.4,2.3-1.1,2.5
			c-0.3,0.1-0.9,0.2-1.6,0.2H217c-1.4,0-2.3-0.4-2.5-1.2c-0.1-0.3-0.2-0.8-0.2-1.6V18.3c0-1,0.2-1.7,0.6-2.1
			c0.4-0.4,1.1-0.6,2.2-0.6h12c0.5,0,0.8,0,1,0c0.2,0,0.5,0.1,0.8,0.3c0.5,0.3,0.8,1.1,0.8,2.4c0,1.4-0.4,2.3-1.1,2.5
			c-0.3,0.1-0.9,0.2-1.6,0.2h-9.3v3.1h6c0.5,0,0.8,0,1,0c0.2,0,0.5,0.1,0.8,0.3c0.5,0.3,0.8,1.1,0.8,2.4c0,1.4-0.4,2.3-1.2,2.5
			c-0.3,0.1-0.9,0.2-1.6,0.2h-6V32.5L219.7,32.5z"/>
		<path class="st2" d="M234.1,34.8c-0.5-0.6-0.8-1.2-0.8-1.8c0-0.5,0.4-1.2,1.3-2.1c0.5-0.5,1-0.7,1.6-0.7s1.4,0.5,2.4,1.5
			c0.3,0.3,0.7,0.7,1.2,1s1,0.5,1.5,0.5c1.9,0,2.8-0.8,2.8-2.3c0-0.5-0.2-0.9-0.8-1.2c-0.5-0.3-1.2-0.5-1.9-0.7
			c-0.8-0.1-1.6-0.4-2.5-0.7s-1.7-0.7-2.5-1.1c-0.8-0.4-1.4-1.1-1.9-2c-0.5-0.9-0.8-2-0.8-3.3c0-1.8,0.7-3.3,2-4.7
			c1.3-1.3,3.1-2,5.4-2c1.2,0,2.3,0.1,3.3,0.5s1.7,0.6,2.1,1l0.8,0.6c0.6,0.6,0.9,1.1,0.9,1.5c0,0.4-0.2,1-0.7,1.7
			c-0.7,1-1.4,1.5-2.1,1.5c-0.4,0-1-0.2-1.6-0.6c0,0-0.2-0.1-0.3-0.3c-0.2-0.2-0.3-0.3-0.5-0.4c-0.4-0.3-1-0.4-1.6-0.4
			s-1.2,0.1-1.6,0.5c-0.4,0.3-0.6,0.7-0.6,1.3c0,0.6,0.2,1,0.8,1.4c0.5,0.3,1.2,0.6,1.9,0.7c0.8,0.1,1.6,0.3,2.5,0.6
			c0.9,0.2,1.8,0.6,2.5,0.9c0.8,0.4,1.4,1,1.9,1.9c0.5,0.9,0.8,2,0.8,3.3c0,1.3-0.3,2.5-0.8,3.5c-0.5,1-1.2,1.8-2.1,2.3
			c-1.6,1.1-3.4,1.6-5.3,1.6c-1,0-1.9-0.1-2.7-0.3c-0.8-0.2-1.5-0.5-2.1-0.9c-1.1-0.6-1.8-1.3-2.3-1.9L234.1,34.8z"/>
		<path class="st2" d="M267.9,20.1c0.5,1.1,0.8,2.3,0.8,3.6c0,1.3-0.3,2.5-0.8,3.6c-0.5,1.1-1.2,1.9-2,2.5c-1.7,1.3-3.4,2-5.2,2
			h-3.8v3.4c0,0.5,0,0.8,0,1c0,0.2-0.1,0.5-0.3,0.8c-0.3,0.5-1.1,0.8-2.4,0.8c-1.4,0-2.3-0.4-2.5-1.1c-0.1-0.3-0.2-0.9-0.2-1.6V18.3
			c0-0.5,0-0.8,0-1c0-0.2,0.1-0.5,0.3-0.8c0.3-0.5,1.1-0.8,2.4-0.8h6.5c1.8,0,3.5,0.6,5.2,2C266.7,18.2,267.4,19,267.9,20.1z
			 M262.5,25.7c0.6-0.4,0.9-1.1,0.9-2s-0.3-1.6-0.9-2c-0.6-0.4-1.2-0.7-1.8-0.7h-3.8v5.4h3.8C261.3,26.4,261.9,26.2,262.5,25.7z"/>
		<path class="st2" d="M276.1,32.5h9.4c0.5,0,0.8,0,1,0s0.5,0.1,0.8,0.3c0.5,0.3,0.8,1.1,0.8,2.4c0,1.4-0.4,2.3-1.1,2.5
			c-0.3,0.1-0.9,0.2-1.6,0.2h-12.1c-1.4,0-2.3-0.4-2.5-1.2c-0.1-0.3-0.2-0.8-0.2-1.6V18.3c0-1,0.2-1.7,0.6-2.1
			c0.4-0.4,1.1-0.6,2.2-0.6h12c0.5,0,0.8,0,1,0c0.2,0,0.5,0.1,0.8,0.3c0.5,0.3,0.8,1.1,0.8,2.4c0,1.4-0.4,2.3-1.1,2.5
			c-0.3,0.1-0.9,0.2-1.6,0.2h-9.3v3.1h6c0.5,0,0.8,0,1,0s0.5,0.1,0.8,0.3c0.5,0.3,0.8,1.1,0.8,2.4c0,1.4-0.4,2.3-1.2,2.5
			c-0.3,0.1-0.9,0.2-1.6,0.2h-6L276.1,32.5L276.1,32.5z"/>
	</g>
</g>
</svg>
