<?xml version="1.0" encoding="utf-8"?>
<!-- Generator: Adobe Illustrator 25.0.0, SVG Export Plug-In . SVG Version: 6.00 Build 0)  -->
<svg version="1.1" id="Capa_1" xmlns="http://www.w3.org/2000/svg" xmlns:xlink="http://www.w3.org/1999/xlink" x="0px" y="0px"
	 viewBox="0 0 300 74.1" style="enable-background:new 0 0 300 74.1;" xml:space="preserve">
<style type="text/css">
	.st0{fill:#FFFFFF;}
</style>
<g>
	<g>
		<path class="st0" d="M28.3,42.9h21.1c0.3,0,0.4,0,0.6,0c0.2,0,0.4,0.1,0.6,0.1c0.2,0.1,0.4,0.1,0.6,0.2c0.2,0.1,0.4,0.2,0.6,0.3
			c0.2,0.1,0.4,0.3,0.5,0.4c0.2,0.1,0.4,0.3,0.5,0.4c0.2,0.2,0.4,0.4,0.4,0.4c0.2,0.2,0.3,0.4,0.4,0.5c-0.1,0.1-0.2,0.2-0.3,0.4
			c-0.1,0.1-0.2,0.3-0.3,0.4S53,46.2,53,46.3c-0.1,0.1-0.1,0.3-0.2,0.4c0,0.3,0,0.4-0.1,0.5c0,0.2-0.1,0.3-0.1,0.4
			c0,0.2,0,0.3,0,0.4c0,0.2,0,0.3,0,0.4c0,0.2,0,0.3,0.1,0.4c0,0.2,0.1,0.3,0.1,0.4c0,0.2,0.1,0.3,0.2,0.4c0.1,0.2,0.1,0.3,0.2,0.4
			c0.1,0.1,0.2,0.3,0.3,0.4c0.1,0.1,0.2,0.3,0.3,0.4c0.1,0.1,0.2,0.2,0.4,0.4c0.1,0.1,0.3,0.2,0.4,0.3c0.1,0.1,0.3,0.2,0.4,0.3
			S55,52,55.1,52c0.2,0.1,0.3,0.1,0.4,0.2c0.2,0,0.3,0.1,0.4,0.1c0.2,0,0.3,0.1,0.4,0.1c0.2,0,0.3,0,0.4,0c0.2,0,0.3,0,0.4,0
			c0.2,0,0.3-0.1,0.4-0.1c0.2,0,0.3-0.1,0.4-0.1c0.2-0.1,0.3-0.1,0.4-0.2c0.1-0.1,0.3-0.2,0.4-0.2c0.1-0.1,0.3-0.2,0.4-0.3
			c0.1-0.1,0.3-0.2,0.4-0.3c0.1-0.1,0.2-0.2,0.3-0.4c0.1-0.1,0.2-0.3,0.3-0.4c0.1-0.1,0.2-0.3,0.2-0.4c0.1-0.1,0.1-0.3,0.2-0.4
			c0.1-0.2,0.1-0.3,0.1-0.4c0-0.2,0.1-0.3,0.1-0.4c0-0.2,0-0.3,0-0.4c0-0.2,0-0.3,0-0.4c0-0.2,0-0.3-0.1-0.4c0-0.2-0.1-0.3-0.1-0.4
			c0-0.2-0.1-0.3-0.2-0.4c-0.1-0.2-0.1-0.3-0.2-0.4C60.1,46.3,60,46.1,60,46c-0.1-0.1-0.2-0.3-0.3-0.4c-0.1-0.1-0.2-0.2-0.4-0.4
			c-0.1-0.1-0.3-0.2-0.4-0.3s-0.3-0.2-0.4-0.3c-0.1-0.1-0.3-0.2-0.4-0.2c-0.2-0.1-0.3-0.1-0.4-0.2c-0.2-0.4-0.4-0.8-0.6-1.1
			c-0.2-0.4-0.5-0.7-0.8-1.1s-0.6-0.6-1-1c-0.4-0.3-0.7-0.5-1.1-0.8s-0.8-0.4-1.1-0.6c-0.4-0.2-0.8-0.4-1.2-0.4s-0.9-0.3-1.3-0.3
			C50.3,39,49.8,39,49.4,39H28.3c-0.2,0-0.4,0-0.6,0c-0.2,0-0.4,0-0.6-0.1c-0.2,0-0.4-0.1-0.6-0.1s-0.4-0.1-0.6-0.1
			c-0.2,0-0.4-0.1-0.6-0.2c-0.2-0.1-0.4-0.1-0.6-0.2c-0.2-0.1-0.4-0.1-0.6-0.2c-0.2-0.1-0.4-0.2-0.6-0.3s-0.4-0.2-0.6-0.3
			c-0.2-0.1-0.4-0.2-0.6-0.3c-0.2-0.1-0.4-0.2-0.5-0.4c-0.2-0.1-0.4-0.3-0.5-0.4c-0.2-0.1-0.4-0.3-0.5-0.4c-0.2-0.1-0.4-0.3-0.5-0.4
			c-0.2-0.2-0.4-0.3-0.5-0.4s-0.4-0.3-0.4-0.4c-0.2-0.2-0.3-0.3-0.4-0.4c-0.2-0.2-0.3-0.4-0.4-0.5c-0.2-0.2-0.3-0.4-0.4-0.5
			c-0.1-0.2-0.3-0.4-0.4-0.5c-0.1-0.2-0.3-0.4-0.4-0.5s-0.2-0.4-0.4-0.5c-0.1-0.2-0.2-0.4-0.3-0.6c-0.1-0.2-0.2-0.4-0.3-0.6
			c-0.1-0.2-0.2-0.4-0.3-0.6c-0.1-0.2-0.2-0.4-0.2-0.6c-0.1-0.2-0.1-0.4-0.2-0.6c-0.1-0.2-0.1-0.4-0.2-0.6c0-0.2-0.1-0.4-0.1-0.6
			s-0.1-0.4-0.1-0.6s0-0.4-0.1-0.6c-0.1-0.2,0-0.4,0-0.6s0-0.4,0-0.6s0-0.4,0.1-0.6c0-0.2,0.1-0.4,0.1-0.6s0.1-0.4,0.1-0.6
			s0.1-0.4,0.2-0.6c0.1-0.2,0.1-0.4,0.2-0.6c0.1-0.2,0.1-0.4,0.2-0.6s0.2-0.4,0.3-0.6c0.1-0.2,0.2-0.4,0.3-0.6
			c0.1-0.2,0.2-0.4,0.3-0.6c0.1-0.2,0.2-0.4,0.4-0.5c0.1-0.2,0.3-0.4,0.4-0.5c0.1-0.2,0.3-0.4,0.4-0.5c0.1-0.2,0.3-0.4,0.4-0.5
			c0.2-0.2,0.3-0.4,0.4-0.5c0.2-0.2,0.3-0.4,0.4-0.4c0.2-0.2,0.3-0.3,0.4-0.4c0.2-0.2,0.4-0.3,0.5-0.4c0.2-0.2,0.4-0.3,0.5-0.4
			c0.2-0.1,0.4-0.3,0.5-0.4s0.4-0.3,0.5-0.4s0.4-0.2,0.5-0.4c0.2-0.1,0.4-0.2,0.6-0.3c0.2-0.1,0.4-0.2,0.6-0.3
			c0.2-0.1,0.4-0.2,0.6-0.3c0.2-0.1,0.4-0.2,0.6-0.2c0.2-0.1,0.4-0.1,0.6-0.2c0.2-0.1,0.4-0.1,0.6-0.2c0.2,0,0.4-0.1,0.6-0.1
			s0.4-0.1,0.6-0.1s0.4,0,0.6-0.1c0.2-0.1,0.4,0,0.6,0h16.6c0.1,0.1,0.2,0.3,0.3,0.4s0.2,0.3,0.3,0.4s0.2,0.2,0.4,0.3
			c0.1,0.1,0.3,0.2,0.4,0.3c0.1,0.1,0.3,0.2,0.4,0.3c0.1,0.1,0.3,0.2,0.4,0.2c0.2,0.1,0.3,0.1,0.4,0.2c0.2,0,0.3,0.1,0.4,0.1
			s0.3,0,0.4,0.1c0.2,0,0.3,0,0.4,0c0.2,0,0.3,0,0.4,0c0.2,0,0.3-0.1,0.4-0.1c0.2,0,0.3-0.1,0.4-0.2c0.2-0.1,0.3-0.1,0.4-0.2
			c0.2-0.1,0.3-0.2,0.4-0.3c0.1-0.1,0.3-0.2,0.4-0.3c0.1-0.1,0.2-0.2,0.4-0.3c0.1-0.1,0.2-0.2,0.3-0.4c0.1-0.1,0.2-0.3,0.3-0.4
			c0.1-0.1,0.2-0.3,0.2-0.4c0.1-0.2,0.1-0.3,0.2-0.4c0.1-0.2,0.1-0.3,0.1-0.4c0-0.2,0.1-0.3,0.1-0.4c0-0.2,0-0.3,0-0.4
			c0-0.2,0-0.3,0-0.4c0-0.2,0-0.3-0.1-0.4c0-0.2-0.1-0.3-0.1-0.4c-0.1-0.2-0.1-0.3-0.2-0.4c-0.1-0.2-0.1-0.3-0.2-0.4
			c-0.1-0.1-0.2-0.3-0.3-0.4c-0.1-0.1-0.2-0.3-0.3-0.4C51.2,7.6,51,7.5,51,7.4c-0.1-0.1-0.3-0.2-0.4-0.3c-0.1-0.1-0.3-0.2-0.4-0.3
			c-0.1-0.1-0.3-0.1-0.4-0.2c-0.2-0.1-0.3-0.1-0.4-0.2c-0.1,0-0.3,0-0.4,0c-0.2,0-0.3,0-0.4-0.1c-0.2,0-0.3,0-0.4,0
			c-0.2,0-0.3,0-0.4,0.1c-0.2,0-0.3,0.1-0.4,0.1c-0.2,0-0.3,0.1-0.4,0.2c-0.2,0.1-0.3,0.1-0.4,0.2c-0.1,0.1-0.3,0.2-0.4,0.3
			c-0.1,0.1-0.3,0.2-0.4,0.3c-0.1,0.1-0.2,0.2-0.4,0.3C45.2,7.9,45.1,8,45,8.1c-0.1,0.1-0.2,0.3-0.3,0.4H28.3c-0.3,0-0.5,0-0.9,0
			c-0.3,0-0.5,0-0.9,0.1c-0.3,0-0.5,0.1-0.9,0.1c-0.3,0-0.5,0.1-0.8,0.2C24.6,8.9,24.3,8.9,24,9c-0.3,0.1-0.5,0.2-0.8,0.3
			s-0.5,0.2-0.8,0.3c-0.3,0.1-0.5,0.2-0.8,0.3c-0.3,0.1-0.5,0.3-0.8,0.4c-0.3,0.1-0.5,0.3-0.8,0.4c-0.3,0.1-0.5,0.3-0.7,0.4
			c-0.3,0.2-0.4,0.3-0.7,0.4c-0.3,0.2-0.4,0.4-0.7,0.5s-0.4,0.4-0.7,0.5c-0.2,0.2-0.4,0.4-0.6,0.5s-0.4,0.4-0.6,0.6
			c-0.2,0.2-0.4,0.4-0.6,0.6c-0.2,0.2-0.4,0.4-0.5,0.6c-0.2,0.2-0.4,0.4-0.5,0.7c-0.2,0.3-0.4,0.4-0.5,0.7c-0.2,0.3-0.3,0.4-0.4,0.7
			c-0.2,0.3-0.3,0.5-0.4,0.7c-0.2,0.2-0.3,0.5-0.4,0.8s-0.3,0.5-0.4,0.8s-0.2,0.5-0.3,0.8c-0.1,0.3-0.2,0.5-0.3,0.8
			s-0.2,0.5-0.3,0.8s-0.1,0.5-0.2,0.8c-0.1,0.3-0.1,0.5-0.2,0.8c0,0.3-0.1,0.5-0.1,0.9c0,0.3-0.1,0.5-0.1,0.9c0,0.3,0,0.5,0,0.9
			c0,0.4,0,0.5,0,0.9c0,0.3,0,0.5,0.1,0.9c0,0.3,0.1,0.5,0.1,0.9c0,0.3,0.1,0.5,0.2,0.8c0.1,0.3,0.1,0.5,0.2,0.8
			c0.1,0.3,0.2,0.5,0.3,0.8c0.1,0.3,0.2,0.5,0.3,0.8c0.1,0.3,0.2,0.5,0.3,0.8c0.1,0.3,0.3,0.5,0.4,0.8c0.1,0.3,0.3,0.5,0.4,0.8
			c0.1,0.3,0.3,0.5,0.4,0.7c0.2,0.3,0.3,0.4,0.4,0.7c0.2,0.3,0.4,0.4,0.5,0.7c0.2,0.3,0.4,0.4,0.5,0.7c0.2,0.2,0.4,0.4,0.5,0.6
			c0.2,0.2,0.4,0.4,0.6,0.6c0.2,0.2,0.4,0.4,0.6,0.6c0.2,0.2,0.4,0.4,0.6,0.5c0.2,0.2,0.4,0.4,0.7,0.5s0.4,0.4,0.7,0.5
			c0.3,0.2,0.4,0.3,0.7,0.4c0.3,0.2,0.5,0.3,0.7,0.4c0.3,0.2,0.5,0.3,0.8,0.4c0.3,0.1,0.5,0.3,0.8,0.4c0.3,0.1,0.5,0.2,0.8,0.3
			c0.3,0.1,0.5,0.2,0.8,0.3s0.5,0.2,0.8,0.3c0.3,0.1,0.5,0.1,0.8,0.2c0.3,0.1,0.5,0.1,0.8,0.2c0.3,0,0.5,0.1,0.9,0.1
			c0.3,0,0.5,0.1,0.9,0.1C27.7,42.9,27.9,42.9,28.3,42.9L28.3,42.9z"/>
	</g>
	<path class="st0" d="M31.7,16.3c-0.1-0.1-0.2-0.3-0.3-0.4c-0.1-0.1-0.2-0.3-0.3-0.4c-0.1-0.1-0.2-0.2-0.4-0.4
		c-0.1-0.1-0.3-0.2-0.4-0.3c-0.1-0.1-0.3-0.2-0.4-0.3c-0.1-0.1-0.3-0.2-0.4-0.2c-0.2-0.1-0.3-0.1-0.4-0.2c-0.2,0-0.3-0.1-0.4-0.1
		s-0.3,0-0.4-0.1c-0.2,0-0.3,0-0.4,0c-0.2,0-0.3,0-0.4,0c-0.2,0-0.3,0.1-0.4,0.1s-0.3,0.1-0.4,0.2c-0.2,0.1-0.3,0.1-0.4,0.2
		c-0.1,0.1-0.3,0.2-0.4,0.3c-0.1,0.1-0.3,0.2-0.4,0.3c-0.1,0.1-0.3,0.2-0.4,0.3c-0.1,0.1-0.2,0.2-0.3,0.4c-0.1,0.2-0.2,0.3-0.3,0.4
		c-0.1,0.1-0.2,0.3-0.2,0.4c-0.1,0.2-0.1,0.3-0.2,0.4c-0.1,0.2-0.1,0.3-0.1,0.4c0,0.2-0.1,0.3-0.1,0.4s0,0.3,0,0.4s0,0.3,0,0.4
		s0,0.3,0.1,0.4c0,0.2,0.1,0.3,0.1,0.4c0.1,0.2,0.1,0.3,0.2,0.4c0.1,0.2,0.1,0.3,0.2,0.4c0.1,0.1,0.2,0.3,0.3,0.4
		c0.1,0.1,0.2,0.3,0.3,0.4c0.1,0.1,0.2,0.2,0.4,0.3s0.3,0.2,0.4,0.3c0.1,0.1,0.3,0.2,0.4,0.3c0.1,0.1,0.3,0.1,0.4,0.2
		s0.3,0.1,0.4,0.2c0.2,0.1,0.3,0.1,0.4,0.1c0.2,0,0.3,0,0.4,0.1c0.2,0.1,0.3,0,0.4,0c0.2,0,0.3,0,0.4-0.1c0.2,0,0.3-0.1,0.4-0.1
		s0.3-0.1,0.4-0.2s0.3-0.1,0.4-0.2c0.1-0.1,0.3-0.2,0.4-0.3c0.1-0.1,0.3-0.2,0.4-0.3c0.1-0.1,0.2-0.2,0.4-0.3
		c0.1-0.1,0.2-0.2,0.3-0.4c0.1-0.1,0.2-0.3,0.3-0.4h25.8c0.1,0.1,0.2,0.3,0.3,0.4c0.1,0.1,0.2,0.3,0.3,0.4c0.1,0.1,0.2,0.2,0.4,0.3
		c0.1,0.1,0.3,0.2,0.4,0.3c0.1,0.1,0.3,0.2,0.4,0.3s0.3,0.1,0.4,0.2c0.2,0.1,0.3,0.1,0.4,0.2c0.2,0,0.3,0.1,0.4,0.1
		c0.2,0,0.3,0,0.4,0.1c0.2,0,0.3,0,0.4,0c0.2,0,0.3,0,0.4-0.1c0.2,0,0.3-0.1,0.4-0.1c0.2,0,0.3-0.1,0.4-0.2s0.3-0.1,0.4-0.2
		c0.1-0.1,0.3-0.2,0.4-0.3c0.1-0.1,0.3-0.2,0.4-0.3c0.1-0.1,0.2-0.2,0.4-0.3c0.1-0.1,0.2-0.2,0.3-0.4c0.1-0.1,0.2-0.3,0.3-0.4
		c0.1-0.1,0.2-0.3,0.2-0.4c0.1-0.2,0.1-0.3,0.2-0.4s0.1-0.3,0.1-0.4s0.1-0.3,0.1-0.4s0-0.3,0-0.4s0-0.3,0-0.4s0-0.3-0.1-0.4
		c0-0.2-0.1-0.3-0.1-0.4c-0.1-0.2-0.1-0.3-0.2-0.4c-0.1-0.2-0.2-0.3-0.2-0.4c-0.1-0.1-0.2-0.3-0.3-0.4c-0.1-0.1-0.2-0.3-0.3-0.4
		c-0.1-0.1-0.2-0.2-0.4-0.3c-0.1-0.1-0.3-0.2-0.4-0.3c-0.1-0.1-0.3-0.2-0.4-0.3c-0.1-0.1-0.3-0.1-0.4-0.2c-0.2-0.1-0.3-0.1-0.4-0.2
		c-0.2,0-0.3-0.1-0.4-0.1c-0.2,0-0.3,0-0.4,0c-0.2,0-0.3,0-0.4,0c-0.2,0-0.3,0-0.4,0.1c-0.2,0-0.3,0.1-0.4,0.1
		c-0.2,0-0.3,0.1-0.4,0.2c-0.2,0.1-0.3,0.1-0.4,0.2c-0.1,0.1-0.3,0.2-0.4,0.3c-0.1,0.1-0.3,0.2-0.4,0.3c-0.1,0.1-0.2,0.2-0.4,0.4
		c-0.1,0.1-0.2,0.3-0.3,0.4s-0.2,0.3-0.3,0.4H31.7z"/>
	<g>
		<path class="st0" d="M49.4,31H28.3c-0.3,0-0.4,0-0.6,0c-0.2,0-0.4-0.1-0.6-0.1c-0.2-0.1-0.4-0.1-0.6-0.2c-0.2-0.1-0.4-0.2-0.6-0.3
			c-0.2-0.1-0.4-0.3-0.5-0.4c-0.2-0.1-0.4-0.3-0.5-0.4c-0.2-0.2-0.4-0.4-0.4-0.4c-0.2-0.2-0.3-0.4-0.4-0.5c0.1-0.1,0.2-0.2,0.3-0.4
			c0.1-0.1,0.2-0.3,0.3-0.4c0.1-0.1,0.2-0.3,0.2-0.4c0.1-0.1,0.1-0.3,0.2-0.4c0.1-0.2,0.1-0.3,0.1-0.4s0.1-0.3,0.1-0.4s0-0.3,0-0.4
			s0-0.3,0-0.4c0-0.2,0-0.3-0.1-0.4c0-0.2-0.1-0.3-0.1-0.4c0-0.2-0.1-0.3-0.2-0.4c-0.1-0.2-0.1-0.3-0.2-0.4
			c-0.1-0.1-0.2-0.3-0.3-0.4c-0.1-0.1-0.2-0.3-0.3-0.4c-0.1-0.1-0.2-0.2-0.4-0.3c-0.1-0.1-0.3-0.2-0.4-0.3c-0.1-0.1-0.3-0.2-0.4-0.3
			c-0.1-0.1-0.3-0.2-0.4-0.2c-0.2-0.1-0.3-0.1-0.4-0.2c-0.2,0-0.3-0.1-0.4-0.1s-0.3-0.1-0.4-0.1s-0.3,0-0.4,0s-0.3,0-0.4,0
			c-0.2,0-0.3,0.1-0.4,0.1c-0.2,0-0.3,0.1-0.4,0.1C19.3,22,19.2,22,19,22.1c-0.1,0.1-0.3,0.2-0.4,0.2c-0.1,0.1-0.3,0.2-0.4,0.3
			c-0.1,0.1-0.3,0.2-0.4,0.3c-0.1,0.1-0.2,0.2-0.3,0.4c-0.1,0.1-0.2,0.3-0.3,0.4c-0.1,0.1-0.2,0.3-0.2,0.4c-0.1,0.1-0.1,0.3-0.2,0.4
			C17,24.5,17,24.6,17,24.7c0,0.2-0.1,0.3-0.1,0.4c0,0.2,0,0.3,0,0.4s0,0.3,0,0.4s0,0.3,0.1,0.4c0,0.2,0.1,0.3,0.1,0.4
			s0.1,0.3,0.2,0.4c0.1,0.2,0.1,0.3,0.2,0.4c0.1,0.1,0.2,0.3,0.3,0.4c0.1,0.1,0.2,0.3,0.3,0.4c0.1,0.1,0.2,0.2,0.4,0.4
			c0.1,0.1,0.3,0.2,0.4,0.3c0.1,0.1,0.3,0.2,0.4,0.3c0.1,0.1,0.3,0.2,0.4,0.2c0.2,0.1,0.3,0.1,0.4,0.2c0.2,0.4,0.4,0.8,0.6,1.1
			c0.3,0.4,0.5,0.7,0.8,1.1c0.3,0.4,0.6,0.6,1,1c0.4,0.3,0.7,0.5,1.1,0.8c0.4,0.3,0.8,0.4,1.1,0.6c0.4,0.2,0.8,0.4,1.2,0.4
			c0.4,0.1,0.9,0.3,1.3,0.3c0.4,0.1,0.9,0.1,1.3,0.1h21.1c0.2,0,0.4,0,0.6,0c0.2,0,0.4,0,0.6,0.1c0.2,0,0.4,0.1,0.6,0.1
			c0.2,0,0.4,0.1,0.6,0.1c0.2,0,0.4,0.1,0.6,0.2c0.2,0.1,0.4,0.1,0.6,0.2c0.2,0.1,0.4,0.1,0.6,0.2c0.2,0.1,0.4,0.2,0.6,0.3
			c0.2,0.1,0.4,0.2,0.6,0.3c0.2,0.1,0.4,0.2,0.6,0.3c0.2,0.1,0.4,0.2,0.5,0.4c0.2,0.1,0.4,0.3,0.5,0.4c0.2,0.1,0.4,0.3,0.5,0.4
			c0.2,0.1,0.4,0.3,0.5,0.4c0.2,0.2,0.4,0.3,0.5,0.4c0.2,0.2,0.4,0.3,0.4,0.4c0.2,0.2,0.3,0.3,0.4,0.4c0.2,0.2,0.3,0.4,0.4,0.5
			c0.2,0.2,0.3,0.4,0.4,0.5c0.1,0.2,0.3,0.4,0.4,0.5c0.1,0.2,0.3,0.4,0.4,0.5c0.1,0.2,0.2,0.4,0.4,0.5c0.1,0.2,0.2,0.4,0.3,0.6
			c0.1,0.2,0.2,0.4,0.3,0.6c0.1,0.3,0.2,0.4,0.3,0.6c0.1,0.2,0.2,0.4,0.2,0.6s0.1,0.4,0.2,0.6c0.1,0.2,0.1,0.4,0.2,0.6
			c0,0.2,0.1,0.4,0.1,0.6s0.1,0.4,0.1,0.6c0,0.2,0,0.4,0.1,0.6c0,0.2,0,0.4,0,0.6s0,0.4,0,0.6c0,0.2,0,0.4-0.1,0.6
			c0,0.2-0.1,0.4-0.1,0.6s-0.1,0.4-0.1,0.6c0,0.2-0.1,0.4-0.2,0.6c-0.1,0.2-0.1,0.4-0.2,0.6s-0.1,0.4-0.2,0.6
			c-0.1,0.2-0.2,0.4-0.3,0.6c-0.1,0.2-0.2,0.4-0.3,0.6c-0.1,0.2-0.2,0.4-0.3,0.6c-0.1,0.2-0.2,0.4-0.4,0.5c-0.1,0.2-0.3,0.4-0.4,0.5
			c-0.1,0.2-0.3,0.4-0.4,0.5c-0.1,0.2-0.3,0.4-0.4,0.5c-0.2,0.2-0.3,0.4-0.4,0.5s-0.3,0.4-0.4,0.4c-0.2,0.2-0.3,0.3-0.4,0.4
			c-0.2,0.2-0.4,0.3-0.5,0.4c-0.2,0.2-0.4,0.3-0.5,0.4c-0.2,0.1-0.4,0.3-0.5,0.4s-0.4,0.3-0.5,0.4s-0.4,0.2-0.5,0.4
			c-0.2,0.1-0.4,0.2-0.6,0.3c-0.2,0.1-0.4,0.2-0.6,0.3c-0.3,0.1-0.4,0.2-0.6,0.3c-0.2,0.1-0.4,0.2-0.6,0.2c-0.2,0.1-0.4,0.1-0.6,0.2
			C52.3,61,52,61,51.8,61.1c-0.2,0-0.4,0.1-0.6,0.1c-0.2,0.1-0.4,0.1-0.6,0.1c-0.2,0-0.4,0-0.6,0.1c-0.2,0.1-0.4,0-0.6,0H32.6
			c-0.1-0.1-0.2-0.3-0.3-0.4s-0.2-0.3-0.3-0.4c-0.1-0.1-0.2-0.2-0.4-0.3c-0.1-0.1-0.3-0.2-0.4-0.3C31.3,60,31.1,60,31,59.9
			c-0.1-0.1-0.3-0.2-0.4-0.2c-0.2-0.1-0.3-0.1-0.4-0.2c-0.2,0-0.3-0.1-0.4-0.1s-0.3,0-0.4-0.1c-0.2,0-0.3,0-0.4,0s-0.3,0-0.4,0.1
			c-0.2,0.1-0.3,0.1-0.4,0.1s-0.3,0.1-0.4,0.2c-0.2,0.1-0.3,0.1-0.4,0.2c-0.1,0.1-0.3,0.2-0.4,0.3c-0.1,0.1-0.3,0.2-0.4,0.3
			c-0.1,0.1-0.2,0.2-0.4,0.3c-0.1,0.1-0.2,0.2-0.3,0.4c-0.1,0.1-0.2,0.3-0.3,0.4c-0.1,0.1-0.2,0.3-0.2,0.4c-0.1,0.2-0.1,0.3-0.2,0.4
			C25,62.3,25,62.4,25,62.6c0,0.2-0.1,0.3-0.1,0.4c0,0.2,0,0.3,0,0.4c0,0.2,0,0.3,0,0.4s0,0.3,0.1,0.4c0,0.2,0.1,0.3,0.1,0.4
			c0.1,0.2,0.1,0.3,0.2,0.4c0.1,0.2,0.1,0.3,0.2,0.4s0.2,0.3,0.3,0.4c0.1,0.1,0.2,0.3,0.3,0.4c0.1,0.1,0.2,0.2,0.4,0.3
			c0.1,0.1,0.3,0.2,0.4,0.3c0.1,0.1,0.3,0.2,0.4,0.3c0.1,0.1,0.3,0.1,0.4,0.2c0.2,0.1,0.3,0.1,0.4,0.2c0.2,0,0.3,0.1,0.4,0.1
			s0.3,0,0.4,0.1c0.2,0,0.3,0,0.4,0s0.3,0,0.4-0.1c0.2,0,0.3-0.1,0.4-0.1c0.2,0,0.3-0.1,0.4-0.2c0.2-0.1,0.3-0.1,0.4-0.2
			c0.1-0.1,0.3-0.2,0.4-0.3c0.1-0.1,0.3-0.2,0.4-0.3c0.1-0.1,0.2-0.2,0.4-0.3c0.2-0.1,0.2-0.3,0.3-0.4s0.2-0.3,0.3-0.4h16.8
			c0.3,0,0.5,0,0.9,0c0.3,0,0.5,0,0.9-0.1c0.3,0,0.5-0.1,0.9-0.1c0.3,0,0.5-0.1,0.8-0.2c0.3-0.1,0.5-0.1,0.8-0.2
			c0.3-0.1,0.5-0.2,0.8-0.3c0.3-0.1,0.5-0.2,0.8-0.3c0.3-0.1,0.5-0.2,0.8-0.3c0.3-0.1,0.5-0.3,0.8-0.4c0.3-0.1,0.5-0.3,0.8-0.4
			c0.3-0.2,0.5-0.3,0.7-0.4c0.3-0.2,0.4-0.3,0.7-0.4c0.3-0.2,0.4-0.4,0.7-0.5c0.3-0.2,0.4-0.4,0.7-0.5c0.2-0.2,0.4-0.4,0.6-0.5
			c0.2-0.2,0.4-0.4,0.6-0.6c0.2-0.2,0.4-0.4,0.6-0.6c0.2-0.2,0.4-0.4,0.5-0.6c0.2-0.2,0.4-0.4,0.5-0.7c0.2-0.3,0.4-0.4,0.5-0.7
			c0.2-0.3,0.3-0.4,0.4-0.7s0.3-0.5,0.4-0.7c0.2-0.3,0.3-0.5,0.4-0.8c0.1-0.3,0.3-0.5,0.4-0.8c0.1-0.3,0.2-0.5,0.3-0.8
			c0.1-0.3,0.2-0.5,0.3-0.8c0.1-0.3,0.2-0.5,0.3-0.8c0.1-0.3,0.1-0.5,0.2-0.8c0.1-0.3,0.1-0.5,0.2-0.8c0-0.3,0.1-0.5,0.1-0.9
			c0-0.3,0.1-0.5,0.1-0.9c0-0.3,0-0.5,0-0.9c0-0.3,0-0.5,0-0.9c0-0.3,0-0.5-0.1-0.9c0-0.3-0.1-0.5-0.1-0.9c0-0.3-0.1-0.5-0.2-0.8
			s-0.1-0.5-0.2-0.8c-0.1-0.3-0.2-0.5-0.3-0.8c-0.1-0.3-0.2-0.5-0.3-0.8s-0.2-0.5-0.3-0.8c-0.1-0.3-0.3-0.5-0.4-0.8
			c-0.1-0.3-0.3-0.5-0.4-0.8s-0.3-0.5-0.4-0.7c-0.2-0.3-0.3-0.4-0.4-0.7c-0.2-0.3-0.4-0.4-0.5-0.7c-0.2-0.3-0.4-0.4-0.5-0.7
			c-0.2-0.2-0.4-0.4-0.5-0.6c-0.2-0.2-0.4-0.4-0.6-0.6c-0.2-0.2-0.4-0.4-0.6-0.6c-0.2-0.2-0.4-0.4-0.6-0.5c-0.2-0.2-0.4-0.4-0.7-0.5
			c-0.3-0.2-0.4-0.4-0.7-0.5c-0.3-0.2-0.4-0.3-0.7-0.4c-0.3-0.2-0.5-0.3-0.7-0.4c-0.3-0.2-0.5-0.3-0.8-0.4c-0.3-0.1-0.5-0.3-0.8-0.4
			s-0.5-0.2-0.8-0.3c-0.3-0.1-0.5-0.2-0.8-0.3c-0.3-0.1-0.5-0.2-0.8-0.3c-0.3-0.1-0.5-0.1-0.8-0.2c-0.3-0.1-0.5-0.1-0.8-0.2
			c-0.3,0-0.5-0.1-0.9-0.1c-0.3,0-0.5-0.1-0.9-0.1C49.9,31,49.6,31,49.4,31L49.4,31z"/>
	</g>
	<path class="st0" d="M45.8,57.6c0.1,0.1,0.2,0.3,0.3,0.4s0.2,0.3,0.3,0.4c0.1,0.1,0.2,0.2,0.4,0.3c0.1,0.1,0.3,0.2,0.4,0.3
		c0.1,0.1,0.3,0.2,0.4,0.3c0.1,0.1,0.3,0.2,0.4,0.2c0.2,0.1,0.3,0.1,0.4,0.2c0.2,0,0.3,0.1,0.4,0.1s0.3,0,0.4,0.1c0.2,0,0.3,0,0.4,0
		c0.2,0,0.3,0,0.4-0.1c0.2-0.1,0.3-0.1,0.4-0.1c0.2,0,0.3-0.1,0.4-0.2c0.2-0.1,0.3-0.1,0.4-0.2c0.1-0.1,0.3-0.2,0.4-0.3
		c0.1-0.1,0.3-0.2,0.4-0.3c0.1-0.1,0.2-0.2,0.4-0.3c0.1-0.1,0.2-0.2,0.3-0.4c0.1-0.1,0.2-0.3,0.3-0.4s0.2-0.3,0.2-0.4
		c0.1-0.2,0.1-0.3,0.2-0.4c0.1-0.2,0.1-0.3,0.1-0.4s0.1-0.3,0.1-0.4c0-0.2,0-0.3,0-0.4c0-0.2,0-0.3,0-0.4c0-0.2,0-0.3-0.1-0.4
		c0-0.2-0.1-0.3-0.1-0.4c-0.1-0.2-0.1-0.3-0.2-0.4c-0.1-0.2-0.1-0.3-0.2-0.4c-0.1-0.1-0.2-0.3-0.3-0.4c-0.1-0.1-0.2-0.3-0.3-0.4
		c-0.1-0.1-0.2-0.2-0.4-0.3c-0.1-0.1-0.3-0.2-0.4-0.3s-0.3-0.2-0.4-0.3c-0.1-0.1-0.3-0.1-0.4-0.2c-0.2-0.1-0.3-0.1-0.4-0.2
		c-0.3,0.1-0.4,0.1-0.5,0.1c-0.2,0-0.3,0-0.4,0c-0.2,0-0.3,0-0.4,0c-0.2,0-0.3,0-0.4,0.1c-0.2,0-0.3,0.1-0.4,0.1
		c-0.2,0-0.3,0.1-0.4,0.2c-0.2,0.1-0.3,0.1-0.4,0.2c-0.2,0.1-0.3,0.2-0.4,0.3c-0.1,0.1-0.3,0.2-0.4,0.3s-0.2,0.2-0.4,0.3
		c-0.1,0.1-0.2,0.3-0.3,0.4s-0.2,0.3-0.3,0.4H20.2c-0.1-0.1-0.2-0.3-0.3-0.4c-0.1-0.1-0.2-0.3-0.3-0.4c-0.1-0.1-0.2-0.2-0.4-0.3
		c-0.1-0.1-0.3-0.2-0.4-0.3c-0.1-0.1-0.3-0.2-0.4-0.3s-0.3-0.2-0.4-0.2c-0.2-0.1-0.3-0.1-0.4-0.2c-0.2,0-0.3-0.1-0.4-0.1
		c-0.2,0-0.3,0-0.4-0.1c-0.2,0-0.3,0-0.4,0c-0.2,0-0.3,0-0.4,0c-0.2,0-0.3,0.1-0.4,0.1c-0.2,0-0.3,0.1-0.4,0.2
		c-0.2,0.1-0.3,0.1-0.4,0.2c-0.1,0.1-0.3,0.2-0.4,0.3c-0.1,0.1-0.3,0.2-0.4,0.3s-0.2,0.2-0.4,0.3c-0.1,0.1-0.2,0.2-0.3,0.4
		c-0.1,0.1-0.2,0.3-0.3,0.4c-0.1,0.1-0.2,0.3-0.2,0.4c-0.1,0.2-0.1,0.3-0.2,0.4c-0.1,0.2-0.1,0.3-0.1,0.4c0,0.2-0.1,0.3-0.1,0.4
		c0,0.2,0,0.3,0,0.4c0,0.2,0,0.3,0,0.4c0,0.2,0,0.3,0.1,0.4c0,0.2,0.1,0.3,0.1,0.4c0.1,0.2,0.1,0.3,0.2,0.4c0.1,0.2,0.1,0.3,0.2,0.4
		c0.1,0.1,0.2,0.3,0.3,0.4c0.1,0.1,0.2,0.3,0.3,0.4c0.1,0.1,0.2,0.2,0.4,0.3c0.1,0.1,0.3,0.2,0.4,0.3c0.1,0.1,0.3,0.2,0.4,0.3
		c0.1,0.1,0.3,0.1,0.4,0.2c0.2,0.1,0.3,0.1,0.4,0.2c0.2,0,0.3,0.1,0.4,0.1c0.2,0,0.3,0,0.4,0.1c0.2,0,0.3,0,0.4,0
		c0.2,0,0.3,0,0.4-0.1c0.2,0,0.3-0.1,0.4-0.1c0.2,0,0.3-0.1,0.4-0.2s0.3-0.1,0.4-0.2c0.1-0.1,0.3-0.2,0.4-0.3
		c0.1-0.1,0.3-0.2,0.4-0.3c0.1-0.1,0.2-0.2,0.4-0.3c0.1-0.1,0.2-0.3,0.3-0.4c0.1-0.1,0.2-0.3,0.3-0.4h25.7V57.6z"/>
	<g>
		<path class="st0" d="M83.6,42.5h8.3c0.4,0,0.7,0,1,0c0.2,0,0.4,0.1,0.7,0.3c0.5,0.3,0.7,1,0.7,2.1c0,1.2-0.4,2-1,2.2
			c-0.3,0.1-0.8,0.2-1.4,0.2H81.2c-1.2,0-2-0.4-2.2-1.1c-0.1-0.3-0.2-0.7-0.2-1.4v-15c0-0.9,0.2-1.6,0.5-1.9c0.4-0.3,1-0.5,1.9-0.5
			H92c0.4,0,0.7,0,1,0c0.2,0,0.4,0.1,0.7,0.3c0.5,0.3,0.7,1,0.7,2.1c0,1.2-0.4,2-1,2.2c-0.3,0.1-0.8,0.2-1.4,0.2h-8.3v2.7H89
			c0.4,0,0.7,0,1,0c0.2,0,0.4,0.1,0.7,0.3c0.5,0.3,0.7,1,0.7,2.1c0,1.2-0.4,2-1.1,2.2c-0.3,0.1-0.8,0.2-1.4,0.2h-5.3
			C83.6,39.7,83.6,42.5,83.6,42.5z"/>
		<path class="st0" d="M106.4,35.3h4.8c1,0,1.6,0.3,1.8,0.8c0.2,0.4,0.3,0.9,0.3,1.5v5.9c0,0.6-0.3,1.1-0.8,1.7
			c-1.5,1.6-3.8,2.4-6.8,2.4c-2.6,0-5-1-7-3c-1.9-2-3-4.5-3-7.3s1-5.3,3-7.2c2-1.9,4.4-2.9,7.2-2.9c2.1,0,4.1,0.7,6,2.1
			c0.5,0.4,0.7,0.8,0.7,1.2s-0.2,1-0.6,1.5c-0.7,1-1.3,1.4-1.9,1.4c-0.4,0-0.9-0.3-1.7-0.7c-0.8-0.5-1.7-0.7-2.7-0.7
			c-1.4,0-2.6,0.4-3.6,1.4s-1.6,2.2-1.6,3.8s0.5,2.9,1.6,4c1.1,1.1,2.3,1.7,3.7,1.7c1,0,1.9-0.2,2.6-0.5v-2.9h-2.1
			c-0.5,0-1-0.1-1.1-0.2c-0.3-0.2-0.4-0.4-0.4-0.6c-0.1-0.3-0.1-0.6-0.1-1.1c0-0.4,0-0.9,0.1-1.1c0.1-0.3,0.3-0.5,0.4-0.6
			C105.4,35.4,105.9,35.3,106.4,35.3z"/>
		<path class="st0" d="M128.4,28.2c0.2-0.3,0.4-0.5,0.8-0.6c0.4-0.1,0.8-0.2,1.3-0.2c0.5,0,0.9,0.1,1.2,0.2c0.3,0.1,0.5,0.2,0.7,0.4
			c0.2,0.1,0.3,0.4,0.4,0.5c0.1,0.3,0.2,0.8,0.2,1.4v8.2c0,2.4-0.7,4.6-2.2,6.5c-0.7,0.9-1.7,1.7-2.8,2.2c-1.1,0.5-2.4,0.9-3.8,0.9
			s-2.6-0.3-3.8-0.9s-2-1.3-2.7-2.3c-1.5-1.9-2.2-4.1-2.2-6.5v-8.1c0-0.4,0-0.8,0-1c0-0.2,0.1-0.4,0.3-0.7c0.2-0.3,0.4-0.4,0.7-0.5
			c0.4-0.1,0.8-0.2,1.4-0.2c0.6,0,1.1,0.1,1.4,0.2c0.4,0.1,0.6,0.3,0.7,0.5c0.2,0.4,0.4,1,0.4,1.7V38c0,1.1,0.3,2.1,0.8,3.2
			c0.3,0.5,0.7,0.9,1.2,1.2c0.5,0.3,1.1,0.4,1.9,0.4c1.3,0,2.3-0.5,2.9-1.5c0.6-1,1-2.1,1-3.4v-8.3C128.1,29,128.2,28.4,128.4,28.2z
			"/>
		<path class="st0" d="M150.3,44c0.3,0.6,0.4,1.1,0.4,1.4c0,0.7-0.5,1.2-1.7,1.8c-0.6,0.3-1.1,0.4-1.4,0.4c-0.4,0-0.6-0.1-0.9-0.3
			s-0.4-0.4-0.5-0.5c-0.2-0.4-0.9-1.9-2.1-4.9l-0.9,0.1h-3.4V45c0,0.4,0,0.7,0,1c0,0.2-0.1,0.4-0.3,0.7c-0.3,0.5-1,0.7-2.1,0.7
			c-1.2,0-2-0.4-2.2-1c-0.1-0.3-0.2-0.8-0.2-1.4V30c0-0.4,0-0.7,0-1c0-0.2,0.1-0.4,0.3-0.7c0.3-0.5,1-0.7,2.1-0.7h5.8
			c1.6,0,3.1,0.6,4.6,1.8c0.7,0.5,1.3,1.3,1.8,2.3c0.4,1,0.7,2,0.7,3.2c0,2-0.7,3.7-2,5C148.8,40.6,149.4,42,150.3,44z M139.8,37
			h3.4c0.5,0,1.1-0.2,1.6-0.6c0.5-0.4,0.8-1,0.8-1.8s-0.3-1.4-0.8-1.8c-0.5-0.4-1.1-0.6-1.6-0.6h-3.4V37z"/>
		<path class="st0" d="M152.1,29.9c0-0.4,0-0.7,0-1c0-0.2,0.1-0.4,0.3-0.7c0.3-0.5,1-0.7,2.1-0.7c1.2,0,2,0.4,2.2,1
			c0.1,0.3,0.2,0.8,0.2,1.4v15c0,0.4,0,0.7,0,1c0,0.2-0.1,0.4-0.3,0.7c-0.3,0.5-1,0.7-2.1,0.7c-1.2,0-2-0.4-2.2-1.1
			c-0.1-0.3-0.2-0.7-0.2-1.4V29.9z"/>
		<path class="st0" d="M161.5,27.5h5c2.6,0,4.9,1,6.9,2.8c1.9,1.9,3,4.2,3,7c0,2.7-1,5.1-2.9,7.1s-4.3,2.9-7.1,2.9h-4.9
			c-1.1,0-1.8-0.3-2-0.7c-0.2-0.4-0.4-1-0.4-1.8v-15c0-0.4,0-0.7,0-1c0-0.2,0.1-0.4,0.3-0.7C159.6,27.6,160.3,27.5,161.5,27.5z
			 M170,41.1c1.1-1,1.6-2.2,1.6-3.6s-0.5-2.6-1.5-3.7c-1.1-1-2.2-1.5-3.6-1.5h-2.6v10.2h2.6C167.8,42.5,169,42,170,41.1z"/>
		<path class="st0" d="M188.2,28.9l7.3,15.1c0.3,0.6,0.4,1.1,0.4,1.4c0,0.6-0.5,1.2-1.6,1.8c-0.6,0.3-1.1,0.4-1.4,0.4
			s-0.6-0.1-0.9-0.3c-0.3-0.2-0.4-0.4-0.5-0.5s-0.3-0.4-0.4-0.8l-1.4-2.9h-7.5l-1.4,2.9c-0.2,0.4-0.4,0.6-0.4,0.8
			c-0.1,0.2-0.3,0.4-0.5,0.5s-0.5,0.3-0.9,0.3c-0.4,0-0.8-0.2-1.4-0.4c-1.1-0.5-1.6-1.1-1.6-1.8c0-0.3,0.2-0.8,0.4-1.4l7.3-15.1
			c0.2-0.4,0.5-0.7,0.9-1c0.4-0.3,0.8-0.4,1.3-0.4C187.1,27.5,187.8,27.9,188.2,28.9z M186,35.3l-1.8,3.7h3.6L186,35.3z"/>
		<path class="st0" d="M199.9,27.5h5c2.6,0,4.9,1,6.9,2.8c1.9,1.9,3,4.2,3,7c0,2.7-1,5.1-2.9,7.1s-4.3,2.9-7.1,2.9h-4.9
			c-1.1,0-1.8-0.3-2-0.7c-0.2-0.4-0.4-1-0.4-1.8v-15c0-0.4,0-0.7,0-1c0-0.2,0.1-0.4,0.3-0.7C198,27.6,198.7,27.5,199.9,27.5z
			 M208.4,41.1c1.1-1,1.6-2.2,1.6-3.6s-0.5-2.6-1.5-3.7c-1.1-1-2.2-1.5-3.6-1.5h-2.6v10.2h2.6C206.2,42.5,207.4,42,208.4,41.1z"/>
		<path class="st0" d="M228.2,42.5h8.3c0.4,0,0.7,0,1,0c0.2,0,0.4,0.1,0.7,0.3c0.5,0.3,0.7,1,0.7,2.1c0,1.2-0.4,2-1,2.2
			c-0.3,0.1-0.8,0.2-1.4,0.2h-10.7c-1.2,0-2-0.4-2.2-1.1c-0.1-0.3-0.2-0.7-0.2-1.4v-15c0-0.9,0.2-1.6,0.5-1.9c0.4-0.3,1-0.5,1.9-0.5
			h10.7c0.4,0,0.7,0,1,0c0.2,0,0.4,0.1,0.7,0.3c0.5,0.3,0.7,1,0.7,2.1c0,1.2-0.4,2-1,2.2c-0.3,0.1-0.8,0.2-1.4,0.2h-8.3v2.7h5.4
			c0.4,0,0.7,0,1,0c0.2,0,0.4,0.1,0.7,0.3c0.5,0.3,0.7,1,0.7,2.1c0,1.2-0.4,2-1.1,2.2c-0.3,0.1-0.8,0.2-1.4,0.2h-5.3L228.2,42.5
			L228.2,42.5z"/>
		<path class="st0" d="M240.9,44.5c-0.4-0.6-0.7-1.1-0.7-1.6c0-0.4,0.4-1.1,1.1-1.9c0.4-0.4,1-0.6,1.4-0.6c0.5,0,1.2,0.4,2.1,1.3
			c0.3,0.3,0.6,0.6,1.1,0.9c0.4,0.3,0.9,0.4,1.3,0.4c1.7,0,2.6-0.7,2.6-2c0-0.4-0.3-0.8-0.7-1.1c-0.4-0.3-1.1-0.4-1.7-0.6
			c-0.7-0.1-1.4-0.4-2.2-0.6c-0.8-0.3-1.5-0.6-2.2-1c-0.7-0.4-1.2-1-1.7-1.8c-0.4-0.8-0.7-1.8-0.7-3c0-1.6,0.6-3,1.8-4.1
			s2.8-1.8,4.9-1.8c1.1,0,2,0.2,3,0.4c0.9,0.3,1.5,0.5,1.9,0.9l0.7,0.5c0.5,0.5,0.9,1,0.9,1.3c0,0.4-0.2,0.9-0.6,1.5
			c-0.6,0.9-1.2,1.3-1.9,1.3c-0.4,0-0.9-0.2-1.4-0.5c-0.1,0-0.2-0.1-0.4-0.3c-0.2-0.2-0.3-0.3-0.4-0.4c-0.4-0.3-0.9-0.4-1.4-0.4
			s-1.1,0.2-1.5,0.4c-0.4,0.3-0.6,0.7-0.6,1.1c0,0.5,0.3,0.9,0.7,1.2c0.4,0.3,1.1,0.5,1.7,0.6c0.7,0.1,1.4,0.3,2.2,0.5
			c0.8,0.3,1.6,0.5,2.2,0.8c0.7,0.4,1.2,0.9,1.7,1.7c0.4,0.8,0.7,1.8,0.7,3c0,1.1-0.3,2.2-0.7,3.1c-0.4,0.9-1.1,1.6-1.9,2
			c-1.5,1-3,1.4-4.7,1.4c-0.9,0-1.7-0.1-2.4-0.4c-0.7-0.3-1.4-0.4-1.9-0.8c-1-0.6-1.6-1.1-2-1.7L240.9,44.5z"/>
		<path class="st0" d="M271.1,31.4c0.4,1,0.7,2,0.7,3.2c0,1.1-0.3,2.2-0.7,3.2c-0.4,1-1.1,1.7-1.9,2.3c-1.5,1.1-3.1,1.8-4.7,1.8
			h-3.4v3.1c0,0.4,0,0.7,0,1c0,0.2-0.1,0.4-0.3,0.7c-0.3,0.5-1,0.7-2.1,0.7c-1.2,0-2-0.4-2.2-1c-0.1-0.3-0.2-0.8-0.2-1.4v-15
			c0-0.4,0-0.7,0-1c0-0.2,0.1-0.4,0.3-0.7c0.3-0.5,1-0.7,2.1-0.7h5.8c1.6,0,3.1,0.6,4.6,1.8C270,29.8,270.6,30.5,271.1,31.4z
			 M266.3,36.5c0.5-0.4,0.8-1,0.8-1.8c0-0.8-0.3-1.4-0.8-1.8c-0.5-0.4-1.1-0.6-1.6-0.6h-3.4v4.8h3.4C265.2,37,265.7,36.8,266.3,36.5
			z"/>
		<path class="st0" d="M278.3,42.5h8.3c0.4,0,0.7,0,1,0c0.2,0,0.4,0.1,0.7,0.3c0.5,0.3,0.7,1,0.7,2.1c0,1.2-0.4,2-1,2.2
			c-0.3,0.1-0.8,0.2-1.4,0.2H276c-1.2,0-2-0.4-2.2-1.1c-0.1-0.3-0.2-0.7-0.2-1.4v-15c0-0.9,0.2-1.6,0.5-1.9s1-0.5,1.9-0.5h10.7
			c0.4,0,0.7,0,1,0c0.2,0,0.4,0.1,0.7,0.3c0.5,0.3,0.7,1,0.7,2.1c0,1.2-0.4,2-1,2.2c-0.3,0.1-0.8,0.2-1.4,0.2h-8.3v2.7h5.4
			c0.4,0,0.7,0,1,0c0.2,0,0.4,0.1,0.7,0.3c0.5,0.3,0.7,1,0.7,2.1c0,1.2-0.4,2-1.1,2.2c-0.3,0.1-0.8,0.2-1.4,0.2h-5.3L278.3,42.5
			L278.3,42.5z"/>
	</g>
</g>
</svg>
