<?xml version="1.0" encoding="utf-8"?>
<!-- Generator: Adobe Illustrator 25.0.0, SVG Export Plug-In . SVG Version: 6.00 Build 0)  -->
<svg version="1.1" id="Capa_1" xmlns="http://www.w3.org/2000/svg" xmlns:xlink="http://www.w3.org/1999/xlink" x="0px" y="0px"
	 viewBox="0 0 337.1 85.5" style="enable-background:new 0 0 337.1 85.5;" xml:space="preserve">
<style type="text/css">
	.st0{fill:#FFFFFF;}
	.st1{clip-path:url(#SVGID_2_);}
	.st2{fill:#004AAD;}
	.st3{fill:#6165FA;}
	.st4{clip-path:url(#SVGID_4_);}
</style>
<path class="st0" d="M0.3,0.3H326c6,0,10.8,5.7,10.8,11.7v73.2H11.1c-6,0-10.8-5.7-10.8-11.7V0.3L0.3,0.3z"/>
<g>
	<g>
		<defs>
			<rect id="SVGID_1_" x="9.6" y="7.9" width="56.6" height="52"/>
		</defs>
		<clipPath id="SVGID_2_">
			<use xlink:href="#SVGID_1_"  style="overflow:visible;"/>
		</clipPath>
		<g class="st1">
			<path class="st2" d="M29.2,49.2h23.9c0.3,0,0.5,0,0.7,0c0.2,0,0.5,0.1,0.7,0.1c0.2,0.1,0.5,0.1,0.7,0.2c0.2,0.1,0.5,0.2,0.7,0.3
				c0.2,0.1,0.4,0.3,0.6,0.4c0.2,0.1,0.4,0.3,0.6,0.5c0.2,0.2,0.4,0.4,0.5,0.5c0.2,0.2,0.3,0.4,0.4,0.6c-0.1,0.1-0.2,0.2-0.3,0.4
				c-0.1,0.1-0.2,0.3-0.3,0.4s-0.2,0.3-0.2,0.4c-0.1,0.1-0.1,0.3-0.2,0.5C57,53.8,57,54,56.9,54.1c0,0.2-0.1,0.3-0.1,0.5
				c0,0.2,0,0.3,0,0.5c0,0.2,0,0.3,0,0.5c0,0.2,0,0.3,0.1,0.5c0,0.2,0.1,0.3,0.1,0.5c0,0.2,0.1,0.3,0.2,0.5s0.1,0.3,0.2,0.4
				c0.1,0.1,0.2,0.3,0.3,0.4c0.1,0.1,0.2,0.3,0.3,0.4c0.1,0.1,0.2,0.2,0.4,0.4c0.1,0.1,0.3,0.2,0.4,0.3c0.1,0.1,0.3,0.2,0.4,0.3
				c0.1,0.1,0.3,0.2,0.4,0.2c0.2,0.1,0.3,0.1,0.5,0.2c0.2,0,0.3,0.1,0.5,0.1c0.2,0,0.3,0.1,0.5,0.1c0.2,0,0.3,0,0.5,0
				c0.2,0,0.3,0,0.5,0c0.2,0,0.3-0.1,0.5-0.1c0.2,0,0.3-0.1,0.5-0.1c0.2-0.1,0.3-0.1,0.5-0.2c0.1-0.1,0.3-0.2,0.4-0.2
				c0.1-0.1,0.3-0.2,0.4-0.3c0.1-0.1,0.3-0.2,0.4-0.3c0.1-0.1,0.2-0.2,0.3-0.4c0.1-0.1,0.2-0.3,0.3-0.4c0.1-0.1,0.2-0.3,0.2-0.4
				c0.1-0.1,0.1-0.3,0.2-0.5c0.1-0.2,0.1-0.3,0.1-0.5c0-0.2,0.1-0.3,0.1-0.5s0-0.3,0-0.5c0-0.2,0-0.3,0-0.5s0-0.3-0.1-0.5
				c0-0.2-0.1-0.3-0.1-0.5c0-0.2-0.1-0.3-0.2-0.5c-0.1-0.2-0.1-0.3-0.2-0.4c-0.1-0.1-0.2-0.3-0.3-0.4c-0.1-0.1-0.2-0.3-0.3-0.4
				c-0.1-0.1-0.2-0.2-0.4-0.4c-0.1-0.1-0.3-0.2-0.4-0.3c-0.1-0.1-0.3-0.2-0.4-0.3c-0.1-0.1-0.3-0.2-0.4-0.2
				c-0.2-0.1-0.3-0.1-0.5-0.2c-0.2-0.5-0.5-0.9-0.7-1.3s-0.6-0.8-0.9-1.2c-0.3-0.4-0.7-0.7-1.1-1.1c-0.4-0.3-0.8-0.6-1.2-0.9
				c-0.4-0.3-0.9-0.5-1.3-0.7c-0.5-0.2-0.9-0.4-1.4-0.5c-0.5-0.1-1-0.3-1.5-0.3c-0.5-0.1-1-0.1-1.5-0.1H29.2c-0.2,0-0.5,0-0.7,0
				s-0.5,0-0.7-0.1c-0.2,0-0.5-0.1-0.7-0.1c-0.2,0-0.5-0.1-0.7-0.1c-0.2,0-0.5-0.1-0.7-0.2c-0.2-0.1-0.5-0.1-0.7-0.2
				c-0.2-0.1-0.5-0.1-0.7-0.2c-0.2-0.1-0.5-0.2-0.7-0.3c-0.2-0.1-0.4-0.2-0.7-0.3c-0.2-0.1-0.4-0.2-0.7-0.3
				c-0.2-0.1-0.4-0.2-0.6-0.4c-0.2-0.1-0.4-0.3-0.6-0.4c-0.2-0.1-0.4-0.3-0.6-0.4s-0.4-0.3-0.6-0.4c-0.2-0.2-0.4-0.3-0.6-0.5
				c-0.2-0.2-0.4-0.3-0.5-0.5c-0.2-0.2-0.3-0.3-0.5-0.5c-0.2-0.2-0.3-0.4-0.5-0.6c-0.2-0.2-0.3-0.4-0.4-0.6
				c-0.1-0.2-0.3-0.4-0.4-0.6s-0.3-0.4-0.4-0.6c-0.1-0.2-0.2-0.4-0.4-0.6c-0.1-0.2-0.2-0.4-0.3-0.7c-0.1-0.2-0.2-0.4-0.3-0.7
				c-0.1-0.2-0.2-0.5-0.3-0.7c-0.1-0.2-0.2-0.5-0.2-0.7c-0.1-0.2-0.1-0.5-0.2-0.7c-0.1-0.2-0.1-0.5-0.2-0.7c0-0.2-0.1-0.5-0.1-0.7
				c0-0.2-0.1-0.5-0.1-0.7c0-0.2,0-0.5-0.1-0.7s0-0.5,0-0.7s0-0.5,0-0.7s0-0.5,0.1-0.7c0-0.2,0.1-0.5,0.1-0.7c0-0.2,0.1-0.5,0.1-0.7
				c0-0.2,0.1-0.5,0.2-0.7c0.1-0.2,0.1-0.5,0.2-0.7c0.1-0.2,0.1-0.5,0.2-0.7c0.1-0.2,0.2-0.5,0.3-0.7c0.1-0.2,0.2-0.4,0.3-0.7
				c0.1-0.2,0.2-0.4,0.3-0.7c0.1-0.2,0.2-0.4,0.4-0.6c0.1-0.2,0.3-0.4,0.4-0.6c0.1-0.2,0.3-0.4,0.4-0.6c0.1-0.2,0.3-0.4,0.4-0.6
				c0.2-0.2,0.3-0.4,0.5-0.6c0.2-0.2,0.3-0.4,0.5-0.5c0.2-0.2,0.3-0.3,0.5-0.5c0.2-0.2,0.4-0.3,0.6-0.5c0.2-0.2,0.4-0.3,0.6-0.4
				s0.4-0.3,0.6-0.4c0.2-0.1,0.4-0.3,0.6-0.4c0.2-0.1,0.4-0.2,0.6-0.4c0.2-0.1,0.4-0.2,0.7-0.3c0.2-0.1,0.4-0.2,0.7-0.3
				c0.2-0.1,0.5-0.2,0.7-0.3s0.5-0.2,0.7-0.2c0.2-0.1,0.5-0.1,0.7-0.2c0.2-0.1,0.5-0.1,0.7-0.2c0.2,0,0.5-0.1,0.7-0.1
				c0.2,0,0.5-0.1,0.7-0.1s0.5,0,0.7-0.1s0.5,0,0.7,0H48c0.1,0.1,0.2,0.3,0.3,0.4c0.1,0.1,0.2,0.3,0.3,0.4c0.1,0.1,0.2,0.2,0.4,0.3
				c0.1,0.1,0.3,0.2,0.4,0.3c0.1,0.1,0.3,0.2,0.4,0.3c0.1,0.1,0.3,0.2,0.5,0.2c0.2,0.1,0.3,0.1,0.5,0.2c0.2,0,0.3,0.1,0.5,0.1
				c0.2,0,0.3,0,0.5,0.1c0.2,0,0.3,0,0.5,0c0.2,0,0.3,0,0.5,0c0.2,0,0.3-0.1,0.5-0.1c0.2,0,0.3-0.1,0.5-0.2c0.2-0.1,0.3-0.1,0.5-0.2
				s0.3-0.2,0.4-0.3c0.1-0.1,0.3-0.2,0.4-0.3c0.1-0.1,0.2-0.2,0.4-0.3c0.1-0.1,0.2-0.2,0.3-0.4c0.1-0.1,0.2-0.3,0.3-0.4
				c0.1-0.1,0.2-0.3,0.2-0.4c0.1-0.2,0.1-0.3,0.2-0.5c0.1-0.2,0.1-0.3,0.1-0.5c0-0.2,0.1-0.3,0.1-0.5c0-0.2,0-0.3,0-0.5
				c0-0.2,0-0.3,0-0.5c0-0.2,0-0.3-0.1-0.5c0-0.2-0.1-0.3-0.1-0.5c-0.1-0.2-0.1-0.3-0.2-0.5c-0.1-0.2-0.1-0.3-0.2-0.4
				c-0.1-0.1-0.2-0.3-0.3-0.4c-0.1-0.1-0.2-0.3-0.3-0.4C55.2,9.2,55,9.1,54.9,9c-0.1-0.1-0.3-0.2-0.4-0.3c-0.1-0.1-0.3-0.2-0.4-0.3
				s-0.3-0.1-0.5-0.2c-0.2-0.1-0.3-0.1-0.5-0.2C53,8,52.8,8,52.7,8c-0.2,0-0.3,0-0.5-0.1c-0.2,0-0.3,0-0.5,0c-0.2,0-0.3,0-0.5,0.1
				c-0.2,0-0.3,0.1-0.5,0.1c-0.2,0-0.3,0.1-0.5,0.2c-0.2,0.1-0.3,0.1-0.5,0.2c-0.1,0.1-0.3,0.2-0.4,0.3c-0.1,0.1-0.3,0.2-0.4,0.3
				c-0.1,0.1-0.2,0.2-0.4,0.3c-0.1,0.1-0.2,0.3-0.3,0.4s-0.2,0.3-0.3,0.4H29.2c-0.3,0-0.6,0-1,0c-0.3,0-0.6,0-1,0.1
				c-0.3,0-0.6,0.1-1,0.1c-0.3,0-0.6,0.1-0.9,0.2c-0.3,0.1-0.6,0.1-0.9,0.2c-0.3,0.1-0.6,0.2-0.9,0.3c-0.3,0.1-0.6,0.2-0.9,0.3
				c-0.3,0.1-0.6,0.2-0.9,0.3c-0.3,0.1-0.6,0.3-0.9,0.4c-0.3,0.1-0.6,0.3-0.9,0.4s-0.6,0.3-0.8,0.5c-0.3,0.2-0.5,0.3-0.8,0.5
				c-0.3,0.2-0.5,0.4-0.8,0.6c-0.3,0.2-0.5,0.4-0.8,0.6c-0.2,0.2-0.5,0.4-0.7,0.6c-0.2,0.2-0.5,0.4-0.7,0.7
				c-0.2,0.2-0.4,0.5-0.7,0.7c-0.2,0.2-0.4,0.5-0.6,0.7c-0.2,0.2-0.4,0.5-0.6,0.8c-0.2,0.3-0.4,0.5-0.6,0.8
				c-0.2,0.3-0.3,0.5-0.5,0.8c-0.2,0.3-0.3,0.6-0.5,0.8s-0.3,0.6-0.4,0.9c-0.1,0.3-0.3,0.6-0.4,0.9c-0.1,0.3-0.2,0.6-0.3,0.9
				c-0.1,0.3-0.2,0.6-0.3,0.9s-0.2,0.6-0.3,0.9c-0.1,0.3-0.1,0.6-0.2,0.9c-0.1,0.3-0.1,0.6-0.2,0.9c0,0.3-0.1,0.6-0.1,1
				c0,0.3-0.1,0.6-0.1,1c0,0.3,0,0.6,0,1s0,0.6,0,1c0,0.3,0,0.6,0.1,1c0,0.3,0.1,0.6,0.1,1c0,0.3,0.1,0.6,0.2,0.9
				c0.1,0.3,0.1,0.6,0.2,0.9c0.1,0.3,0.2,0.6,0.3,0.9c0.1,0.3,0.2,0.6,0.3,0.9c0.1,0.3,0.2,0.6,0.3,0.9c0.1,0.3,0.3,0.6,0.4,0.9
				c0.1,0.3,0.3,0.6,0.4,0.9s0.3,0.6,0.5,0.8c0.2,0.3,0.3,0.5,0.5,0.8c0.2,0.3,0.4,0.5,0.6,0.8c0.2,0.3,0.4,0.5,0.6,0.8
				c0.2,0.2,0.4,0.5,0.6,0.7c0.2,0.2,0.4,0.5,0.7,0.7c0.2,0.2,0.5,0.4,0.7,0.7c0.2,0.2,0.5,0.4,0.7,0.6s0.5,0.4,0.8,0.6
				c0.3,0.2,0.5,0.4,0.8,0.6c0.3,0.2,0.5,0.3,0.8,0.5c0.3,0.2,0.6,0.3,0.8,0.5c0.3,0.2,0.6,0.3,0.9,0.4c0.3,0.1,0.6,0.3,0.9,0.4
				c0.3,0.1,0.6,0.2,0.9,0.3c0.3,0.1,0.6,0.2,0.9,0.3c0.3,0.1,0.6,0.2,0.9,0.3c0.3,0.1,0.6,0.1,0.9,0.2c0.3,0.1,0.6,0.1,0.9,0.2
				c0.3,0,0.6,0.1,1,0.1c0.3,0,0.6,0.1,1,0.1C28.5,49.2,28.8,49.2,29.2,49.2L29.2,49.2z"/>
		</g>
	</g>
	<path class="st3" d="M33.1,19.1c-0.1-0.1-0.2-0.3-0.3-0.4c-0.1-0.1-0.2-0.3-0.3-0.4c-0.1-0.1-0.2-0.2-0.4-0.4
		c-0.1-0.1-0.3-0.2-0.4-0.3c-0.1-0.1-0.3-0.2-0.4-0.3c-0.1-0.1-0.3-0.2-0.5-0.2c-0.2-0.1-0.3-0.1-0.5-0.2c-0.2,0-0.3-0.1-0.5-0.1
		c-0.2,0-0.3,0-0.5-0.1c-0.2,0-0.3,0-0.5,0c-0.2,0-0.3,0-0.5,0c-0.2,0-0.3,0.1-0.5,0.1c-0.2,0-0.3,0.1-0.5,0.2
		c-0.2,0.1-0.3,0.1-0.5,0.2c-0.1,0.1-0.3,0.2-0.4,0.3c-0.1,0.1-0.3,0.2-0.4,0.3c-0.1,0.1-0.3,0.2-0.4,0.3c-0.1,0.1-0.2,0.2-0.3,0.4
		s-0.2,0.3-0.3,0.4c-0.1,0.1-0.2,0.3-0.2,0.4c-0.1,0.2-0.1,0.3-0.2,0.5c-0.1,0.2-0.1,0.3-0.1,0.5c0,0.2-0.1,0.3-0.1,0.5
		c0,0.2,0,0.3,0,0.5c0,0.2,0,0.3,0,0.5c0,0.2,0,0.3,0.1,0.5c0,0.2,0.1,0.3,0.1,0.5c0.1,0.2,0.1,0.3,0.2,0.5c0.1,0.2,0.1,0.3,0.2,0.4
		c0.1,0.1,0.2,0.3,0.3,0.4c0.1,0.1,0.2,0.3,0.3,0.4c0.1,0.1,0.2,0.2,0.4,0.3s0.3,0.2,0.4,0.3c0.1,0.1,0.3,0.2,0.4,0.3
		s0.3,0.1,0.5,0.2s0.3,0.1,0.5,0.2s0.3,0.1,0.5,0.1c0.2,0,0.3,0,0.5,0.1s0.3,0,0.5,0c0.2,0,0.3,0,0.5-0.1c0.2,0,0.3-0.1,0.5-0.1
		c0.2,0,0.3-0.1,0.5-0.2s0.3-0.1,0.5-0.2c0.1-0.1,0.3-0.2,0.4-0.3c0.1-0.1,0.3-0.2,0.4-0.3c0.1-0.1,0.2-0.2,0.4-0.3
		c0.1-0.1,0.2-0.2,0.3-0.4c0.1-0.1,0.2-0.3,0.3-0.4h29.2c0.1,0.1,0.2,0.3,0.3,0.4c0.1,0.1,0.2,0.3,0.3,0.4c0.1,0.1,0.2,0.2,0.4,0.3
		c0.1,0.1,0.3,0.2,0.4,0.3c0.1,0.1,0.3,0.2,0.4,0.3c0.1,0.1,0.3,0.1,0.5,0.2c0.2,0.1,0.3,0.1,0.5,0.2c0.2,0,0.3,0.1,0.5,0.1
		c0.2,0,0.3,0,0.5,0.1c0.2,0,0.3,0,0.5,0s0.3,0,0.5-0.1c0.2,0,0.3-0.1,0.5-0.1c0.2,0,0.3-0.1,0.5-0.2c0.2-0.1,0.3-0.1,0.5-0.2
		c0.1-0.1,0.3-0.2,0.4-0.3c0.1-0.1,0.3-0.2,0.4-0.3c0.1-0.1,0.2-0.2,0.4-0.3c0.1-0.1,0.2-0.2,0.3-0.4c0.1-0.1,0.2-0.3,0.3-0.4
		c0.1-0.1,0.2-0.3,0.2-0.4c0.1-0.2,0.1-0.3,0.2-0.5c0.1-0.2,0.1-0.3,0.1-0.5c0-0.2,0.1-0.3,0.1-0.5c0-0.2,0-0.3,0-0.5
		c0-0.2,0-0.3,0-0.5c0-0.2,0-0.3-0.1-0.5c0-0.2-0.1-0.3-0.1-0.5c-0.1-0.2-0.1-0.3-0.2-0.5c-0.1-0.2-0.2-0.3-0.2-0.4
		c-0.1-0.1-0.2-0.3-0.3-0.4c-0.1-0.1-0.2-0.3-0.3-0.4s-0.2-0.2-0.4-0.3c-0.1-0.1-0.3-0.2-0.4-0.3c-0.1-0.1-0.3-0.2-0.4-0.3
		c-0.1-0.1-0.3-0.1-0.5-0.2c-0.2-0.1-0.3-0.1-0.5-0.2c-0.2,0-0.3-0.1-0.5-0.1c-0.2,0-0.3,0-0.5,0c-0.2,0-0.3,0-0.5,0s-0.3,0-0.5,0.1
		c-0.2,0-0.3,0.1-0.5,0.1c-0.2,0-0.3,0.1-0.5,0.2c-0.2,0.1-0.3,0.1-0.5,0.2c-0.1,0.1-0.3,0.2-0.4,0.3c-0.1,0.1-0.3,0.2-0.4,0.3
		c-0.1,0.1-0.2,0.2-0.4,0.4c-0.1,0.1-0.2,0.3-0.3,0.4c-0.1,0.1-0.2,0.3-0.3,0.4H33.1z"/>
	<g>
		<defs>
			<rect id="SVGID_3_" x="16.1" y="25.1" width="56.6" height="52"/>
		</defs>
		<clipPath id="SVGID_4_">
			<use xlink:href="#SVGID_3_"  style="overflow:visible;"/>
		</clipPath>
		<g class="st4">
			<path class="st3" d="M53.1,35.7H29.2c-0.3,0-0.5,0-0.7,0s-0.5-0.1-0.7-0.1c-0.2-0.1-0.5-0.1-0.7-0.2c-0.2-0.1-0.5-0.2-0.7-0.3
				c-0.2-0.1-0.4-0.3-0.6-0.4c-0.2-0.1-0.4-0.3-0.6-0.5c-0.2-0.2-0.4-0.4-0.5-0.5c-0.2-0.2-0.3-0.4-0.4-0.6c0.1-0.1,0.2-0.2,0.3-0.4
				c0.1-0.1,0.2-0.3,0.3-0.4c0.1-0.1,0.2-0.3,0.2-0.4c0.1-0.1,0.1-0.3,0.2-0.5s0.1-0.3,0.1-0.5c0-0.2,0.1-0.3,0.1-0.5
				c0-0.2,0-0.3,0-0.5c0-0.2,0-0.3,0-0.5c0-0.2,0-0.3-0.1-0.5c0-0.2-0.1-0.3-0.1-0.5c0-0.2-0.1-0.3-0.2-0.5
				c-0.1-0.2-0.1-0.3-0.2-0.4c-0.1-0.1-0.2-0.3-0.3-0.4c-0.1-0.1-0.2-0.3-0.3-0.4c-0.1-0.1-0.2-0.2-0.4-0.3
				c-0.1-0.1-0.3-0.2-0.4-0.3c-0.1-0.1-0.3-0.2-0.4-0.3c-0.1-0.1-0.3-0.2-0.4-0.2c-0.2-0.1-0.3-0.1-0.5-0.2c-0.2,0-0.3-0.1-0.5-0.1
				c-0.2,0-0.3-0.1-0.5-0.1c-0.2,0-0.3,0-0.5,0s-0.3,0-0.5,0c-0.2,0-0.3,0.1-0.5,0.1c-0.2,0-0.3,0.1-0.5,0.1
				c-0.2,0.1-0.3,0.1-0.5,0.2c-0.1,0.1-0.3,0.2-0.4,0.2c-0.1,0.1-0.3,0.2-0.4,0.3c-0.1,0.1-0.3,0.2-0.4,0.3
				c-0.1,0.1-0.2,0.2-0.3,0.4c-0.1,0.1-0.2,0.3-0.3,0.4c-0.1,0.1-0.2,0.3-0.2,0.4c-0.1,0.1-0.1,0.3-0.2,0.5
				c-0.1,0.2-0.1,0.3-0.1,0.5c0,0.2-0.1,0.3-0.1,0.5c0,0.2,0,0.3,0,0.5s0,0.3,0,0.5c0,0.2,0,0.3,0.1,0.5c0,0.2,0.1,0.3,0.1,0.5
				c0,0.2,0.1,0.3,0.2,0.5c0.1,0.2,0.1,0.3,0.2,0.4c0.1,0.1,0.2,0.3,0.3,0.4c0.1,0.1,0.2,0.3,0.3,0.4c0.1,0.1,0.2,0.2,0.4,0.4
				c0.1,0.1,0.3,0.2,0.4,0.3c0.1,0.1,0.3,0.2,0.4,0.3c0.1,0.1,0.3,0.2,0.4,0.2c0.2,0.1,0.3,0.1,0.5,0.2c0.2,0.5,0.5,0.9,0.7,1.3
				c0.3,0.4,0.6,0.8,0.9,1.2c0.3,0.4,0.7,0.7,1.1,1.1c0.4,0.3,0.8,0.6,1.2,0.9c0.4,0.3,0.9,0.5,1.3,0.7c0.5,0.2,0.9,0.4,1.4,0.5
				c0.5,0.1,1,0.3,1.5,0.3c0.5,0.1,1,0.1,1.5,0.1h23.9c0.2,0,0.5,0,0.7,0c0.2,0,0.5,0,0.7,0.1c0.2,0,0.5,0.1,0.7,0.1
				c0.2,0,0.5,0.1,0.7,0.1c0.2,0,0.5,0.1,0.7,0.2c0.2,0.1,0.5,0.1,0.7,0.2c0.2,0.1,0.5,0.1,0.7,0.2c0.2,0.1,0.5,0.2,0.7,0.3
				c0.2,0.1,0.4,0.2,0.7,0.3c0.2,0.1,0.4,0.2,0.7,0.3c0.2,0.1,0.4,0.2,0.6,0.4c0.2,0.1,0.4,0.3,0.6,0.4c0.2,0.1,0.4,0.3,0.6,0.4
				c0.2,0.1,0.4,0.3,0.6,0.4c0.2,0.2,0.4,0.3,0.6,0.5c0.2,0.2,0.4,0.3,0.5,0.5c0.2,0.2,0.3,0.3,0.5,0.5c0.2,0.2,0.3,0.4,0.5,0.6
				c0.2,0.2,0.3,0.4,0.4,0.6c0.1,0.2,0.3,0.4,0.4,0.6c0.1,0.2,0.3,0.4,0.4,0.6c0.1,0.2,0.2,0.4,0.4,0.6c0.1,0.2,0.2,0.4,0.3,0.7
				c0.1,0.2,0.2,0.4,0.3,0.7s0.2,0.5,0.3,0.7c0.1,0.2,0.2,0.5,0.2,0.7s0.1,0.5,0.2,0.7c0.1,0.2,0.1,0.5,0.2,0.7
				c0,0.2,0.1,0.5,0.1,0.7c0,0.2,0.1,0.5,0.1,0.7c0,0.2,0,0.5,0.1,0.7c0,0.2,0,0.5,0,0.7c0,0.2,0,0.5,0,0.7c0,0.2,0,0.5-0.1,0.7
				c0,0.2-0.1,0.5-0.1,0.7c0,0.2-0.1,0.5-0.1,0.7c0,0.2-0.1,0.5-0.2,0.7c-0.1,0.2-0.1,0.5-0.2,0.7c-0.1,0.2-0.1,0.5-0.2,0.7
				c-0.1,0.2-0.2,0.5-0.3,0.7c-0.1,0.2-0.2,0.4-0.3,0.7c-0.1,0.2-0.2,0.4-0.3,0.7c-0.1,0.2-0.2,0.4-0.4,0.6
				c-0.1,0.2-0.3,0.4-0.4,0.6c-0.1,0.2-0.3,0.4-0.4,0.6c-0.1,0.2-0.3,0.4-0.4,0.6c-0.2,0.2-0.3,0.4-0.5,0.6
				c-0.2,0.2-0.3,0.4-0.5,0.5c-0.2,0.2-0.3,0.3-0.5,0.5c-0.2,0.2-0.4,0.3-0.6,0.5c-0.2,0.2-0.4,0.3-0.6,0.4
				c-0.2,0.1-0.4,0.3-0.6,0.4c-0.2,0.1-0.4,0.3-0.6,0.4c-0.2,0.1-0.4,0.2-0.6,0.4c-0.2,0.1-0.4,0.2-0.7,0.3
				c-0.2,0.1-0.4,0.2-0.7,0.3s-0.5,0.2-0.7,0.3c-0.2,0.1-0.5,0.2-0.7,0.2c-0.2,0.1-0.5,0.1-0.7,0.2c-0.2,0.1-0.5,0.1-0.7,0.2
				c-0.2,0-0.5,0.1-0.7,0.1C55,70,54.8,70,54.5,70c-0.2,0-0.5,0-0.7,0.1s-0.5,0-0.7,0h-19c-0.1-0.1-0.2-0.3-0.3-0.4
				c-0.1-0.1-0.2-0.3-0.3-0.4s-0.2-0.2-0.4-0.3c-0.1-0.1-0.3-0.2-0.4-0.3c-0.1-0.1-0.3-0.2-0.4-0.3c-0.1-0.1-0.3-0.2-0.5-0.2
				c-0.2-0.1-0.3-0.1-0.5-0.2c-0.2,0-0.3-0.1-0.5-0.1c-0.2,0-0.3,0-0.5-0.1c-0.2,0-0.3,0-0.5,0c-0.2,0-0.3,0-0.5,0.1
				s-0.3,0.1-0.5,0.1c-0.2,0-0.3,0.1-0.5,0.2c-0.2,0.1-0.3,0.1-0.5,0.2c-0.1,0.1-0.3,0.2-0.4,0.3c-0.1,0.1-0.3,0.2-0.4,0.3
				c-0.1,0.1-0.2,0.2-0.4,0.3c-0.1,0.1-0.2,0.2-0.3,0.4c-0.1,0.1-0.2,0.3-0.3,0.4c-0.1,0.1-0.2,0.3-0.2,0.4
				c-0.1,0.2-0.1,0.3-0.2,0.5c-0.1,0.2-0.1,0.3-0.1,0.5c0,0.2-0.1,0.3-0.1,0.5c0,0.2,0,0.3,0,0.5c0,0.2,0,0.3,0,0.5
				c0,0.2,0,0.3,0.1,0.5c0,0.2,0.1,0.3,0.1,0.5c0.1,0.2,0.1,0.3,0.2,0.5c0.1,0.2,0.1,0.3,0.2,0.4c0.1,0.1,0.2,0.3,0.3,0.4
				c0.1,0.1,0.2,0.3,0.3,0.4c0.1,0.1,0.2,0.2,0.4,0.3c0.1,0.1,0.3,0.2,0.4,0.3c0.1,0.1,0.3,0.2,0.4,0.3c0.1,0.1,0.3,0.1,0.5,0.2
				c0.2,0.1,0.3,0.1,0.5,0.2c0.2,0,0.3,0.1,0.5,0.1s0.3,0,0.5,0.1c0.2,0,0.3,0,0.5,0c0.2,0,0.3,0,0.5-0.1c0.2,0,0.3-0.1,0.5-0.1
				c0.2,0,0.3-0.1,0.5-0.2c0.2-0.1,0.3-0.1,0.5-0.2c0.1-0.1,0.3-0.2,0.4-0.3c0.1-0.1,0.3-0.2,0.4-0.3c0.1-0.1,0.2-0.2,0.4-0.3
				s0.2-0.3,0.3-0.4c0.1-0.1,0.2-0.3,0.3-0.4h19c0.3,0,0.6,0,1,0c0.3,0,0.6,0,1-0.1c0.3,0,0.6-0.1,1-0.1c0.3,0,0.6-0.1,0.9-0.2
				c0.3-0.1,0.6-0.1,0.9-0.2c0.3-0.1,0.6-0.2,0.9-0.3c0.3-0.1,0.6-0.2,0.9-0.3c0.3-0.1,0.6-0.2,0.9-0.3c0.3-0.1,0.6-0.3,0.9-0.4
				c0.3-0.1,0.6-0.3,0.9-0.4c0.3-0.2,0.6-0.3,0.8-0.5c0.3-0.2,0.5-0.3,0.8-0.5c0.3-0.2,0.5-0.4,0.8-0.6c0.3-0.2,0.5-0.4,0.8-0.6
				c0.2-0.2,0.5-0.4,0.7-0.6c0.2-0.2,0.5-0.4,0.7-0.7c0.2-0.2,0.4-0.5,0.7-0.7c0.2-0.2,0.4-0.5,0.6-0.7c0.2-0.2,0.4-0.5,0.6-0.8
				c0.2-0.3,0.4-0.5,0.6-0.8c0.2-0.3,0.3-0.5,0.5-0.8s0.3-0.6,0.5-0.8c0.2-0.3,0.3-0.6,0.4-0.9c0.1-0.3,0.3-0.6,0.4-0.9
				c0.1-0.3,0.2-0.6,0.3-0.9c0.1-0.3,0.2-0.6,0.3-0.9c0.1-0.3,0.2-0.6,0.3-0.9c0.1-0.3,0.1-0.6,0.2-0.9c0.1-0.3,0.1-0.6,0.2-0.9
				c0-0.3,0.1-0.6,0.1-1c0-0.3,0.1-0.6,0.1-1c0-0.3,0-0.6,0-1c0-0.3,0-0.6,0-1c0-0.3,0-0.6-0.1-1c0-0.3-0.1-0.6-0.1-1
				c0-0.3-0.1-0.6-0.2-0.9c-0.1-0.3-0.1-0.6-0.2-0.9c-0.1-0.3-0.2-0.6-0.3-0.9c-0.1-0.3-0.2-0.6-0.3-0.9c-0.1-0.3-0.2-0.6-0.3-0.9
				c-0.1-0.3-0.3-0.6-0.4-0.9c-0.1-0.3-0.3-0.6-0.4-0.9s-0.3-0.6-0.5-0.8c-0.2-0.3-0.3-0.5-0.5-0.8c-0.2-0.3-0.4-0.5-0.6-0.8
				c-0.2-0.3-0.4-0.5-0.6-0.8c-0.2-0.2-0.4-0.5-0.6-0.7c-0.2-0.2-0.4-0.5-0.7-0.7c-0.2-0.2-0.5-0.4-0.7-0.7
				c-0.2-0.2-0.5-0.4-0.7-0.6c-0.2-0.2-0.5-0.4-0.8-0.6c-0.3-0.2-0.5-0.4-0.8-0.6c-0.3-0.2-0.5-0.3-0.8-0.5
				c-0.3-0.2-0.6-0.3-0.8-0.5c-0.3-0.2-0.6-0.3-0.9-0.4c-0.3-0.1-0.6-0.3-0.9-0.4c-0.3-0.1-0.6-0.2-0.9-0.3
				c-0.3-0.1-0.6-0.2-0.9-0.3c-0.3-0.1-0.6-0.2-0.9-0.3c-0.3-0.1-0.6-0.1-0.9-0.2c-0.3-0.1-0.6-0.1-0.9-0.2c-0.3,0-0.6-0.1-1-0.1
				c-0.3,0-0.6-0.1-1-0.1C53.7,35.7,53.4,35.7,53.1,35.7L53.1,35.7z"/>
		</g>
	</g>
	<path class="st2" d="M49.1,65.8c0.1,0.1,0.2,0.3,0.3,0.4c0.1,0.1,0.2,0.3,0.3,0.4c0.1,0.1,0.2,0.2,0.4,0.3c0.1,0.1,0.3,0.2,0.4,0.3
		c0.1,0.1,0.3,0.2,0.4,0.3c0.1,0.1,0.3,0.2,0.5,0.2c0.2,0.1,0.3,0.1,0.5,0.2c0.2,0,0.3,0.1,0.5,0.1c0.2,0,0.3,0,0.5,0.1
		c0.2,0,0.3,0,0.5,0c0.2,0,0.3,0,0.5-0.1s0.3-0.1,0.5-0.1c0.2,0,0.3-0.1,0.5-0.2c0.2-0.1,0.3-0.1,0.5-0.2c0.1-0.1,0.3-0.2,0.4-0.3
		c0.1-0.1,0.3-0.2,0.4-0.3c0.1-0.1,0.2-0.2,0.4-0.3c0.1-0.1,0.2-0.2,0.3-0.4c0.1-0.1,0.2-0.3,0.3-0.4c0.1-0.1,0.2-0.3,0.2-0.4
		c0.1-0.2,0.1-0.3,0.2-0.5c0.1-0.2,0.1-0.3,0.1-0.5c0-0.2,0.1-0.3,0.1-0.5c0-0.2,0-0.3,0-0.5c0-0.2,0-0.3,0-0.5c0-0.2,0-0.3-0.1-0.5
		c0-0.2-0.1-0.3-0.1-0.5c-0.1-0.2-0.1-0.3-0.2-0.5c-0.1-0.2-0.1-0.3-0.2-0.4c-0.1-0.1-0.2-0.3-0.3-0.4c-0.1-0.1-0.2-0.3-0.3-0.4
		c-0.1-0.1-0.2-0.2-0.4-0.3c-0.1-0.1-0.3-0.2-0.4-0.3c-0.1-0.1-0.3-0.2-0.4-0.3c-0.1-0.1-0.3-0.1-0.5-0.2c-0.2-0.1-0.3-0.1-0.5-0.2
		C54.1,59,54,59,53.8,59s-0.3,0-0.5,0c-0.2,0-0.3,0-0.5,0c-0.2,0-0.3,0-0.5,0.1c-0.2,0-0.3,0.1-0.5,0.1c-0.2,0-0.3,0.1-0.5,0.2
		c-0.2,0.1-0.3,0.1-0.5,0.2s-0.3,0.2-0.4,0.3c-0.1,0.1-0.3,0.2-0.4,0.3c-0.1,0.1-0.2,0.2-0.4,0.3c-0.1,0.1-0.2,0.3-0.3,0.4
		c-0.1,0.1-0.2,0.3-0.3,0.4H20c-0.1-0.1-0.2-0.3-0.3-0.4c-0.1-0.1-0.2-0.3-0.3-0.4c-0.1-0.1-0.2-0.2-0.4-0.3
		c-0.1-0.1-0.3-0.2-0.4-0.3c-0.1-0.1-0.3-0.2-0.4-0.3s-0.3-0.2-0.5-0.2c-0.2-0.1-0.3-0.1-0.5-0.2c-0.2,0-0.3-0.1-0.5-0.1
		c-0.2,0-0.3,0-0.5-0.1c-0.2,0-0.3,0-0.5,0c-0.2,0-0.3,0-0.5,0c-0.2,0-0.3,0.1-0.5,0.1c-0.2,0-0.3,0.1-0.5,0.2
		c-0.2,0.1-0.3,0.1-0.5,0.2c-0.1,0.1-0.3,0.2-0.4,0.3c-0.1,0.1-0.3,0.2-0.4,0.3c-0.1,0.1-0.2,0.2-0.4,0.3c-0.1,0.1-0.2,0.2-0.3,0.4
		c-0.1,0.1-0.2,0.3-0.3,0.4c-0.1,0.1-0.2,0.3-0.2,0.4c-0.1,0.2-0.1,0.3-0.2,0.5c-0.1,0.2-0.1,0.3-0.1,0.5c0,0.2-0.1,0.3-0.1,0.5
		c0,0.2,0,0.3,0,0.5c0,0.2,0,0.3,0,0.5c0,0.2,0,0.3,0.1,0.5c0,0.2,0.1,0.3,0.1,0.5c0.1,0.2,0.1,0.3,0.2,0.5c0.1,0.2,0.1,0.3,0.2,0.4
		c0.1,0.1,0.2,0.3,0.3,0.4c0.1,0.1,0.2,0.3,0.3,0.4c0.1,0.1,0.2,0.2,0.4,0.3c0.1,0.1,0.3,0.2,0.4,0.3c0.1,0.1,0.3,0.2,0.4,0.3
		c0.1,0.1,0.3,0.1,0.5,0.2c0.2,0.1,0.3,0.1,0.5,0.2c0.2,0,0.3,0.1,0.5,0.1s0.3,0,0.5,0.1c0.2,0,0.3,0,0.5,0s0.3,0,0.5-0.1
		c0.2,0,0.3-0.1,0.5-0.1c0.2,0,0.3-0.1,0.5-0.2c0.2-0.1,0.3-0.1,0.5-0.2c0.1-0.1,0.3-0.2,0.4-0.3c0.1-0.1,0.3-0.2,0.4-0.3
		c0.1-0.1,0.2-0.2,0.4-0.3c0.1-0.1,0.2-0.3,0.3-0.4c0.1-0.1,0.2-0.3,0.3-0.4H49.1z"/>
</g>
<g>
	<path class="st2" d="M91.9,48.7h9.4c0.5,0,0.8,0,1.1,0c0.2,0,0.5,0.1,0.8,0.3c0.6,0.3,0.8,1.1,0.8,2.4c0,1.4-0.4,2.3-1.1,2.5
		c-0.3,0.1-0.9,0.2-1.6,0.2H89.2c-1.4,0-2.3-0.4-2.5-1.2c-0.1-0.3-0.2-0.8-0.2-1.6v-17c0-1,0.2-1.8,0.6-2.1s1.1-0.6,2.2-0.6h12.1
		c0.5,0,0.8,0,1.1,0c0.2,0,0.5,0.1,0.8,0.3c0.6,0.3,0.8,1.1,0.8,2.4c0,1.4-0.4,2.3-1.1,2.5c-0.3,0.1-0.9,0.2-1.6,0.2h-9.4v3.1H98
		c0.5,0,0.8,0,1.1,0c0.2,0,0.5,0.1,0.8,0.3c0.6,0.3,0.8,1.1,0.8,2.4c0,1.4-0.4,2.3-1.2,2.5c-0.3,0.1-0.9,0.2-1.6,0.2h-6V48.7z"/>
	<path class="st2" d="M117.7,40.6h5.4c1.1,0,1.8,0.3,2,0.9c0.2,0.4,0.3,1,0.3,1.7v6.7c0,0.7-0.3,1.3-0.9,1.9
		c-1.7,1.8-4.3,2.7-7.7,2.7c-3,0-5.7-1.1-7.9-3.4c-2.2-2.3-3.4-5.1-3.4-8.3s1.1-6,3.4-8.1c2.3-2.2,5-3.3,8.1-3.3
		c2.4,0,4.7,0.8,6.8,2.4c0.6,0.4,0.8,0.9,0.8,1.4c0,0.5-0.2,1.1-0.7,1.7c-0.8,1.1-1.5,1.6-2.2,1.6c-0.4,0-1-0.3-1.9-0.8
		c-0.9-0.6-1.9-0.8-3.1-0.8c-1.6,0-2.9,0.5-4.1,1.6c-1.2,1.1-1.8,2.5-1.8,4.3s0.6,3.3,1.8,4.5s2.6,1.9,4.2,1.9c1.1,0,2.1-0.2,3-0.6
		v-3.3h-2.4c-0.6,0-1.1-0.1-1.3-0.2c-0.3-0.2-0.4-0.4-0.5-0.7c-0.1-0.3-0.1-0.7-0.1-1.3c0-0.5,0-1,0.1-1.3c0.1-0.3,0.3-0.6,0.5-0.7
		C116.6,40.7,117.1,40.6,117.7,40.6z"/>
	<path class="st2" d="M142.6,32.5c0.2-0.3,0.5-0.6,0.9-0.7c0.4-0.1,0.9-0.2,1.5-0.2s1,0.1,1.4,0.2c0.3,0.1,0.6,0.2,0.8,0.4
		c0.2,0.1,0.3,0.4,0.4,0.6c0.1,0.3,0.2,0.9,0.2,1.6v9.3c0,2.7-0.8,5.2-2.5,7.4c-0.8,1-1.9,1.9-3.2,2.5s-2.7,1-4.3,1s-3-0.3-4.3-1
		c-1.3-0.7-2.3-1.5-3.1-2.6c-1.7-2.2-2.5-4.6-2.5-7.4v-9.2c0-0.5,0-0.9,0-1.1c0-0.2,0.1-0.5,0.3-0.8s0.4-0.5,0.8-0.6
		c0.4-0.1,0.9-0.2,1.6-0.2s1.2,0.1,1.6,0.2c0.4,0.1,0.7,0.3,0.8,0.6c0.2,0.5,0.4,1.1,0.4,1.9v9.2c0,1.2,0.3,2.4,0.9,3.6
		c0.3,0.6,0.8,1,1.4,1.4c0.6,0.3,1.3,0.5,2.2,0.5c1.5,0,2.6-0.6,3.3-1.7c0.7-1.1,1.1-2.4,1.1-3.8v-9.4
		C142.3,33.4,142.4,32.8,142.6,32.5z"/>
	<path class="st2" d="M167.4,50.4c0.3,0.7,0.5,1.3,0.5,1.6c0,0.8-0.6,1.4-1.9,2c-0.7,0.3-1.2,0.4-1.6,0.4s-0.7-0.1-1-0.3
		c-0.3-0.2-0.4-0.4-0.6-0.6c-0.2-0.4-1-2.2-2.4-5.5l-1,0.1h-3.9v3.5c0,0.5,0,0.8,0,1.1c0,0.2-0.1,0.5-0.3,0.8
		c-0.3,0.6-1.1,0.8-2.4,0.8c-1.4,0-2.3-0.4-2.5-1.1c-0.1-0.3-0.2-0.9-0.2-1.6v-17c0-0.5,0-0.8,0-1.1c0-0.2,0.1-0.5,0.3-0.8
		c0.3-0.6,1.1-0.8,2.4-0.8h6.6c1.8,0,3.5,0.7,5.2,2c0.8,0.6,1.5,1.5,2,2.6c0.5,1.1,0.8,2.3,0.8,3.6c0,2.3-0.8,4.2-2.3,5.7
		C165.7,46.6,166.4,48.2,167.4,50.4z M155.6,42.5h3.9c0.6,0,1.2-0.2,1.8-0.7c0.6-0.4,0.9-1.1,0.9-2c0-0.9-0.3-1.6-0.9-2
		c-0.6-0.5-1.2-0.7-1.8-0.7h-3.9V42.5z"/>
	<path class="st2" d="M169.5,34.4c0-0.5,0-0.8,0-1.1c0-0.2,0.1-0.5,0.3-0.8c0.3-0.6,1.1-0.8,2.4-0.8c1.4,0,2.3,0.4,2.5,1.1
		c0.1,0.3,0.2,0.9,0.2,1.6v17c0,0.5,0,0.8,0,1.1c0,0.2-0.1,0.5-0.3,0.8c-0.3,0.6-1.1,0.8-2.4,0.8c-1.4,0-2.3-0.4-2.5-1.2
		c-0.1-0.3-0.2-0.8-0.2-1.6V34.4z"/>
	<path class="st2" d="M180.1,31.7l5.7,0c3,0,5.6,1.1,7.8,3.2c2.2,2.1,3.4,4.8,3.4,7.9c0,3.1-1.1,5.8-3.3,8s-4.9,3.3-8,3.3h-5.6
		c-1.2,0-2-0.3-2.3-0.8c-0.2-0.4-0.4-1.1-0.4-2v-17c0-0.5,0-0.8,0-1.1c0-0.2,0.1-0.5,0.3-0.8C178,31.9,178.8,31.7,180.1,31.7z
		 M189.8,47.1c1.2-1.1,1.8-2.5,1.8-4.1s-0.6-3-1.7-4.2c-1.2-1.1-2.5-1.7-4.1-1.7h-2.9v11.6h3C187.3,48.7,188.6,48.2,189.8,47.1z"/>
	<path class="st2" d="M210.4,33.3l8.3,17.1c0.3,0.7,0.5,1.2,0.5,1.6c0,0.7-0.6,1.4-1.8,2c-0.7,0.3-1.2,0.5-1.6,0.5
		c-0.4,0-0.7-0.1-1-0.3c-0.3-0.2-0.4-0.4-0.6-0.6s-0.3-0.5-0.5-0.9l-1.6-3.3h-8.5l-1.6,3.3c-0.2,0.4-0.4,0.7-0.5,0.9
		c-0.1,0.2-0.3,0.4-0.6,0.6c-0.3,0.2-0.6,0.3-1,0.3s-0.9-0.2-1.6-0.5c-1.2-0.6-1.8-1.2-1.8-2c0-0.3,0.2-0.9,0.5-1.6l8.3-17.1
		c0.2-0.5,0.6-0.8,1-1.1c0.5-0.3,0.9-0.4,1.5-0.4C209.1,31.7,209.9,32.2,210.4,33.3z M207.9,40.6l-2,4.2h4.1L207.9,40.6z"/>
	<path class="st2" d="M223.6,31.7l5.7,0c3,0,5.6,1.1,7.8,3.2c2.2,2.1,3.4,4.8,3.4,7.9c0,3.1-1.1,5.8-3.3,8s-4.9,3.3-8,3.3h-5.6
		c-1.2,0-2-0.3-2.3-0.8c-0.2-0.4-0.4-1.1-0.4-2v-17c0-0.5,0-0.8,0-1.1c0-0.2,0.1-0.5,0.3-0.8C221.5,31.9,222.3,31.7,223.6,31.7z
		 M233.3,47.1c1.2-1.1,1.8-2.5,1.8-4.1s-0.6-3-1.7-4.2c-1.2-1.1-2.5-1.7-4.1-1.7h-2.9v11.6h3C230.8,48.7,232.1,48.2,233.3,47.1z"/>
	<path class="st3" d="M255.7,48.7h9.4c0.5,0,0.8,0,1.1,0c0.2,0,0.5,0.1,0.8,0.3c0.6,0.3,0.8,1.1,0.8,2.4c0,1.4-0.4,2.3-1.1,2.5
		c-0.3,0.1-0.9,0.2-1.6,0.2h-12.1c-1.4,0-2.3-0.4-2.5-1.2c-0.1-0.3-0.2-0.8-0.2-1.6v-17c0-1,0.2-1.8,0.6-2.1s1.1-0.6,2.2-0.6h12.1
		c0.5,0,0.8,0,1.1,0c0.2,0,0.5,0.1,0.8,0.3c0.6,0.3,0.8,1.1,0.8,2.4c0,1.4-0.4,2.3-1.1,2.5c-0.3,0.1-0.9,0.2-1.6,0.2h-9.4v3.1h6.1
		c0.5,0,0.8,0,1.1,0c0.2,0,0.5,0.1,0.8,0.3c0.6,0.3,0.8,1.1,0.8,2.4c0,1.4-0.4,2.3-1.2,2.5c-0.3,0.1-0.9,0.2-1.6,0.2h-6V48.7z"/>
	<path class="st3" d="M270.1,51c-0.5-0.7-0.8-1.2-0.8-1.8c0-0.5,0.4-1.2,1.3-2.1c0.5-0.5,1.1-0.7,1.6-0.7c0.6,0,1.4,0.5,2.4,1.5
		c0.3,0.3,0.7,0.7,1.2,1c0.5,0.3,1,0.5,1.5,0.5c1.9,0,2.9-0.8,2.9-2.3c0-0.5-0.3-0.9-0.8-1.2c-0.5-0.3-1.2-0.5-1.9-0.7
		c-0.8-0.1-1.6-0.4-2.5-0.7c-0.9-0.3-1.7-0.7-2.5-1.1c-0.8-0.4-1.4-1.1-1.9-2c-0.5-0.9-0.8-2-0.8-3.4c0-1.8,0.7-3.4,2-4.7
		c1.3-1.3,3.2-2,5.5-2c1.2,0,2.3,0.2,3.4,0.5c1,0.3,1.7,0.6,2.1,1l0.8,0.6c0.6,0.6,1,1.1,1,1.5c0,0.4-0.2,1-0.7,1.7
		c-0.7,1-1.4,1.5-2.1,1.5c-0.4,0-1-0.2-1.6-0.6c-0.1,0-0.2-0.1-0.4-0.3c-0.2-0.2-0.3-0.3-0.5-0.4c-0.4-0.3-1-0.4-1.6-0.4
		s-1.2,0.2-1.7,0.5c-0.4,0.3-0.7,0.8-0.7,1.3c0,0.6,0.3,1,0.8,1.4c0.5,0.3,1.2,0.6,1.9,0.7c0.8,0.1,1.6,0.3,2.5,0.6s1.8,0.6,2.5,0.9
		c0.8,0.4,1.4,1,1.9,1.9c0.5,0.9,0.8,2,0.8,3.4c0,1.3-0.3,2.5-0.8,3.5c-0.5,1-1.2,1.8-2.1,2.3c-1.7,1.1-3.4,1.6-5.3,1.6
		c-1,0-1.9-0.1-2.7-0.4s-1.6-0.5-2.1-0.9c-1.1-0.7-1.8-1.3-2.3-1.9L270.1,51z"/>
	<path class="st3" d="M304.3,36.2c0.5,1.1,0.8,2.3,0.8,3.6c0,1.3-0.3,2.5-0.8,3.6s-1.2,1.9-2.1,2.6c-1.7,1.3-3.5,2-5.3,2h-3.8v3.5
		c0,0.5,0,0.8,0,1.1c0,0.2-0.1,0.5-0.3,0.8c-0.3,0.6-1.1,0.8-2.4,0.8c-1.4,0-2.3-0.4-2.5-1.1c-0.1-0.3-0.2-0.9-0.2-1.6v-17
		c0-0.5,0-0.8,0-1.1c0-0.2,0.1-0.5,0.3-0.8c0.3-0.6,1.1-0.8,2.4-0.8h6.6c1.8,0,3.5,0.7,5.2,2C303,34.3,303.7,35.1,304.3,36.2z
		 M298.8,41.9c0.6-0.4,0.9-1.1,0.9-2c0-0.9-0.3-1.6-0.9-2s-1.2-0.7-1.8-0.7h-3.8v5.4h3.9C297.6,42.5,298.2,42.3,298.8,41.9z"/>
	<path class="st3" d="M312.5,48.7h9.4c0.5,0,0.8,0,1.1,0c0.2,0,0.5,0.1,0.8,0.3c0.6,0.3,0.8,1.1,0.8,2.4c0,1.4-0.4,2.3-1.1,2.5
		c-0.3,0.1-0.9,0.2-1.6,0.2h-12.1c-1.4,0-2.3-0.4-2.5-1.2c-0.1-0.3-0.2-0.8-0.2-1.6v-17c0-1,0.2-1.8,0.6-2.1s1.1-0.6,2.2-0.6h12.1
		c0.5,0,0.8,0,1.1,0c0.2,0,0.5,0.1,0.8,0.3c0.6,0.3,0.8,1.1,0.8,2.4c0,1.4-0.4,2.3-1.1,2.5c-0.3,0.1-0.9,0.2-1.6,0.2h-9.4v3.1h6.1
		c0.5,0,0.8,0,1.1,0c0.2,0,0.5,0.1,0.8,0.3c0.6,0.3,0.8,1.1,0.8,2.4c0,1.4-0.4,2.3-1.2,2.5c-0.3,0.1-0.9,0.2-1.6,0.2h-6V48.7z"/>
</g>
</svg>
